<?xml version="1.0" encoding="UTF-8" standalone="no"?>
<!-- Created with Inkscape (http://www.inkscape.org/) -->

<svg
   xmlns:dc="http://purl.org/dc/elements/1.1/"
   xmlns:cc="http://creativecommons.org/ns#"
   xmlns:rdf="http://www.w3.org/1999/02/22-rdf-syntax-ns#"
   xmlns:svg="http://www.w3.org/2000/svg"
   xmlns="http://www.w3.org/2000/svg"
   xmlns:sodipodi="http://sodipodi.sourceforge.net/DTD/sodipodi-0.dtd"
   xmlns:inkscape="http://www.inkscape.org/namespaces/inkscape"
   width="338.66666mm"
   height="190.5mm"
   viewBox="0 0 338.66666 190.5"
   version="1.1"
   id="svg8"
   inkscape:version="0.92.4 (5da689c313, 2019-01-14)"
   sodipodi:docname="mongoosejs-cli logo.svg"
   inkscape:export-filename="mongoosejs-cli logo.png"
   inkscape:export-xdpi="96"
   inkscape:export-ydpi="96">
  <defs
     id="defs2" />
  <sodipodi:namedview
     id="base"
     pagecolor="#474747"
     bordercolor="#666666"
     borderopacity="1.0"
     inkscape:pageopacity="0"
     inkscape:pageshadow="2"
     inkscape:zoom="0.5"
     inkscape:cx="700.44178"
     inkscape:cy="321.26684"
     inkscape:document-units="px"
     inkscape:current-layer="layer2"
     showgrid="false"
     fit-margin-top="0"
     fit-margin-left="0"
     fit-margin-right="0"
     fit-margin-bottom="0"
     inkscape:showpageshadow="false"
     borderlayer="true"
     inkscape:window-width="1366"
     inkscape:window-height="705"
     inkscape:window-x="-8"
     inkscape:window-y="-8"
     inkscape:window-maximized="1"
     inkscape:pagecheckerboard="true" />
  <metadata
     id="metadata5">
    <rdf:RDF>
      <cc:Work
         rdf:about="">
        <dc:format>image/svg+xml</dc:format>
        <dc:type
           rdf:resource="http://purl.org/dc/dcmitype/StillImage" />
        <dc:title></dc:title>
      </cc:Work>
    </rdf:RDF>
  </metadata>
  <g
     inkscape:label="Background"
     inkscape:groupmode="layer"
     id="layer1"
     transform="translate(146.84374,4.3604197)"
     sodipodi:insensitive="true">
    <path
       style="opacity:1;fill:#ffffff;fill-opacity:1;fill-rule:nonzero;stroke:none;stroke-width:3.4395833;stroke-linecap:round;stroke-linejoin:round;stroke-miterlimit:4;stroke-dasharray:none;stroke-dashoffset:0;stroke-opacity:1"
       d="M -146.84374,-4.3604197 H 191.82291 V 186.13958 h -338.66665 z"
       id="rect5735"
       inkscape:connector-curvature="0" />
  </g>
  <g
     inkscape:groupmode="layer"
     id="layer2"
     inkscape:label="Layer 1">
    <g
       id="g1043"
       inkscape:export-filename=".\g1043.png"
       inkscape:export-xdpi="96"
       inkscape:export-ydpi="96"
       transform="matrix(1.3937841,0,0,1.3890233,-120.43971,-39.736744)">
      <g
         inkscape:export-ydpi="95.999985"
         inkscape:export-xdpi="95.999985"
         inkscape:export-filename=".\g5798.png"
         transform="translate(-19.457221,-1.122532)"
         id="g5804">
        <g
           id="text11"
           style="font-style:normal;font-variant:normal;font-weight:bold;font-stretch:normal;font-size:17.44402504px;line-height:1.25;font-family:'Perpetua Titling MT';-inkscape-font-specification:'Perpetua Titling MT, Bold';font-variant-ligatures:normal;font-variant-caps:normal;font-variant-numeric:normal;font-feature-settings:normal;text-align:start;letter-spacing:0px;word-spacing:0px;writing-mode:lr-tb;text-anchor:start;fill:#952200;fill-opacity:1;stroke:none;stroke-width:0.26458332;stroke-miterlimit:4;stroke-dasharray:none"
           transform="scale(0.83531588,1.1971519)"
           aria-label="MONGOOSEJS-CLI">
          <path
             id="path833"
             style="font-style:normal;font-variant:normal;font-weight:bold;font-stretch:normal;font-size:17.44402504px;font-family:'Perpetua Titling MT';-inkscape-font-specification:'Perpetua Titling MT, Bold';font-variant-ligatures:normal;font-variant-caps:normal;font-variant-numeric:normal;font-feature-settings:normal;text-align:start;writing-mode:lr-tb;text-anchor:start;fill:#952200;fill-opacity:1;stroke-width:0.26458332;stroke-miterlimit:4;stroke-dasharray:none"
             d="m 152.7677,65.045455 v 0.24701 q -0.49402,0.03407 -0.81769,0.127764 -0.31515,0.08518 -0.52809,0.408844 -0.21294,0.315151 -0.15332,0.945453 l 0.68993,8.423897 q 0.0767,0.885829 0.24701,1.311709 0.17887,0.417361 0.43439,0.562161 0.26405,0.144799 0.82621,0.272562 v 0.247011 h -5.75789 v -0.247011 q 0.72399,-0.01703 1.13284,-0.383291 0.41736,-0.366257 0.33218,-1.447991 l -0.61326,-7.989499 h -0.0341 l -4.09696,10.067792 h -0.29812 l -4.22472,-9.735606 h -0.0341 l -0.55364,6.992941 q -0.0852,1.030629 0.1448,1.584272 0.22998,0.545126 0.60475,0.715478 0.38329,0.161834 0.88583,0.195904 v 0.247011 h -4.2588 v -0.247011 q 0.80917,-0.0511 1.21802,-0.647336 0.41736,-0.596232 0.56216,-1.984599 l 0.84324,-7.938394 q -0.79213,-1.269121 -2.16347,-1.482061 v -0.24701 h 4.53136 l 3.6285,8.253545 3.36444,-8.253545 z"
             inkscape:connector-curvature="0" />
          <path
             id="path835"
             style="font-style:normal;font-variant:normal;font-weight:bold;font-stretch:normal;font-size:17.44402504px;font-family:'Perpetua Titling MT';-inkscape-font-specification:'Perpetua Titling MT, Bold';font-variant-ligatures:normal;font-variant-caps:normal;font-variant-numeric:normal;font-feature-settings:normal;text-align:start;writing-mode:lr-tb;text-anchor:start;fill:#952200;fill-opacity:1;stroke-width:0.26458332;stroke-miterlimit:4;stroke-dasharray:none"
             d="m 154.24124,71.280331 q 0,-1.277638 0.4344,-2.444548 0.44291,-1.16691 1.29467,-2.044222 0.85176,-0.885829 2.06126,-1.371332 1.21801,-0.49402 2.75118,-0.49402 1.5502,0 2.7597,0.502538 1.21801,0.49402 2.06126,1.379849 0.85176,0.88583 1.28615,2.052739 0.4344,1.158393 0.4344,2.470102 0,1.303191 -0.42588,2.453066 -0.41736,1.149874 -1.23505,2.035704 -0.81769,0.885829 -2.06126,1.396885 -1.23505,0.511055 -2.80228,0.511055 -1.68649,0 -2.94709,-0.570679 -1.25209,-0.579196 -2.05274,-1.524648 -0.79214,-0.945453 -1.17543,-2.08681 -0.38329,-1.141357 -0.38329,-2.265679 z m 2.98116,-0.161834 q 0,1.277638 0.18738,2.521207 0.19591,1.23505 0.99656,2.316784 0.80066,1.073217 2.41048,1.073217 2.25716,0 2.88746,-1.814247 0.63882,-1.822765 0.63882,-3.71367 0,-1.473543 -0.25552,-2.759699 -0.25553,-1.286156 -1.04767,-2.197538 -0.78362,-0.9199 -2.22309,-0.9199 -1.61834,0 -2.419,1.047664 -0.79213,1.039146 -0.98804,2.214573 -0.18738,1.175428 -0.18738,2.231609 z"
             inkscape:connector-curvature="0" />
          <path
             id="path837"
             style="font-style:normal;font-variant:normal;font-weight:bold;font-stretch:normal;font-size:17.44402504px;font-family:'Perpetua Titling MT';-inkscape-font-specification:'Perpetua Titling MT, Bold';font-variant-ligatures:normal;font-variant-caps:normal;font-variant-numeric:normal;font-feature-settings:normal;text-align:start;writing-mode:lr-tb;text-anchor:start;fill:#952200;fill-opacity:1;stroke-width:0.26458332;stroke-miterlimit:4;stroke-dasharray:none"
             d="m 172.767,65.045455 7.65731,8.083193 v -5.740856 q 0,-1.132839 -0.45995,-1.541684 -0.45995,-0.417361 -1.4054,-0.553643 v -0.24701 h 4.32694 v 0.24701 q -0.71548,0.07666 -1.0647,0.391809 -0.34922,0.306633 -0.45143,0.723995 -0.10221,0.417362 -0.10221,0.979523 V 77.728147 H 180.9524 L 171.77044,68.0692 v 7.061082 q 0,0.885829 0.37478,1.516131 0.38329,0.621784 1.4054,0.698442 v 0.247011 h -4.48025 v -0.247011 q 1.88238,-0.153316 1.86535,-1.848317 v -8.30465 q -0.0511,-0.03407 -0.13628,-0.119247 -0.0767,-0.07666 -0.25553,-0.24701 -0.17887,-0.170351 -0.32367,-0.306633 -1.14136,-1.098769 -2.00163,-1.226533 v -0.24701 z"
             inkscape:connector-curvature="0" />
          <path
             id="path839"
             style="font-style:normal;font-variant:normal;font-weight:bold;font-stretch:normal;font-size:17.44402504px;font-family:'Perpetua Titling MT';-inkscape-font-specification:'Perpetua Titling MT, Bold';font-variant-ligatures:normal;font-variant-caps:normal;font-variant-numeric:normal;font-feature-settings:normal;text-align:start;writing-mode:lr-tb;text-anchor:start;fill:#952200;fill-opacity:1;stroke-width:0.26458332;stroke-miterlimit:4;stroke-dasharray:none"
             d="m 195.26196,68.520632 h -0.24701 q -0.49402,-1.303192 -1.65242,-2.112363 -1.14987,-0.817688 -2.69155,-0.817688 -1.19247,0 -1.9846,0.511055 -0.79214,0.511056 -1.23505,1.362815 -0.4344,0.843241 -0.60475,1.831282 -0.17035,0.98804 -0.17035,2.086809 0,2.725629 1.08173,4.190655 1.09025,1.456508 2.93005,1.456508 1.32023,0 1.65241,-0.39181 0.33219,-0.391809 0.33219,-1.158392 v -1.44799 q 0,-0.434397 -0.0681,-0.766583 -0.0681,-0.332186 -0.35774,-0.604749 -0.28108,-0.281081 -0.86028,-0.315151 v -0.264045 h 5.2298 v 0.264045 q -1.14987,0.153317 -1.14987,1.405402 v 3.057815 q -2.01015,0.9199 -4.54839,0.9199 -1.02212,0 -1.85684,-0.136281 -0.82621,-0.144799 -1.47354,-0.39181 -0.64734,-0.255527 -1.09025,-0.545125 -0.44292,-0.298116 -0.83473,-0.664372 -0.53661,-0.511056 -0.96249,-1.175428 -0.41736,-0.664372 -0.68992,-1.541684 -0.26405,-0.885829 -0.26405,-1.94201 0,-1.422438 0.50254,-2.597865 0.51106,-1.175428 1.43948,-2.035705 0.92841,-0.868794 2.12088,-1.320226 1.20098,-0.451432 2.52972,-0.451432 0.74955,0 1.29467,0.102211 0.54513,0.102211 1.83129,0.442914 0.40884,0.136282 0.88582,0.136282 0.50254,0 0.66438,-0.664372 h 0.24701 z"
             inkscape:connector-curvature="0" />
          <path
             id="path841"
             style="font-style:normal;font-variant:normal;font-weight:bold;font-stretch:normal;font-size:17.44402504px;font-family:'Perpetua Titling MT';-inkscape-font-specification:'Perpetua Titling MT, Bold';font-variant-ligatures:normal;font-variant-caps:normal;font-variant-numeric:normal;font-feature-settings:normal;text-align:start;writing-mode:lr-tb;text-anchor:start;fill:#952200;fill-opacity:1;stroke-width:0.26458332;stroke-miterlimit:4;stroke-dasharray:none"
             d="m 197.54467,71.280331 q 0,-1.277638 0.4344,-2.444548 0.44291,-1.16691 1.29467,-2.044222 0.85176,-0.885829 2.06126,-1.371332 1.21801,-0.49402 2.75118,-0.49402 1.5502,0 2.7597,0.502538 1.21801,0.49402 2.06125,1.379849 0.85176,0.88583 1.28616,2.052739 0.4344,1.158393 0.4344,2.470102 0,1.303191 -0.42588,2.453066 -0.41736,1.149874 -1.23505,2.035704 -0.81769,0.885829 -2.06126,1.396885 -1.23505,0.511055 -2.80229,0.511055 -1.68648,0 -2.94708,-0.570679 -1.25209,-0.579196 -2.05274,-1.524648 -0.79214,-0.945453 -1.17543,-2.08681 -0.38329,-1.141357 -0.38329,-2.265679 z m 2.98116,-0.161834 q 0,1.277638 0.18738,2.521207 0.19591,1.23505 0.99656,2.316784 0.80065,1.073217 2.41048,1.073217 2.25716,0 2.88746,-1.814247 0.63882,-1.822765 0.63882,-3.71367 0,-1.473543 -0.25553,-2.759699 -0.25552,-1.286156 -1.04766,-2.197538 -0.78362,-0.9199 -2.22309,-0.9199 -1.61834,0 -2.419,1.047664 -0.79213,1.039146 -0.98804,2.214573 -0.18738,1.175428 -0.18738,2.231609 z"
             inkscape:connector-curvature="0" />
          <path
             id="path843"
             style="font-style:normal;font-variant:normal;font-weight:bold;font-stretch:normal;font-size:17.44402504px;font-family:'Perpetua Titling MT';-inkscape-font-specification:'Perpetua Titling MT, Bold';font-variant-ligatures:normal;font-variant-caps:normal;font-variant-numeric:normal;font-feature-settings:normal;text-align:start;writing-mode:lr-tb;text-anchor:start;fill:#952200;fill-opacity:1;stroke-width:0.26458332;stroke-miterlimit:4;stroke-dasharray:none"
             d="m 211.92236,71.280331 q 0,-1.277638 0.4344,-2.444548 0.44291,-1.16691 1.29467,-2.044222 0.85176,-0.885829 2.06126,-1.371332 1.21802,-0.49402 2.75118,-0.49402 1.5502,0 2.7597,0.502538 1.21802,0.49402 2.06126,1.379849 0.85176,0.88583 1.28615,2.052739 0.4344,1.158393 0.4344,2.470102 0,1.303191 -0.42588,2.453066 -0.41736,1.149874 -1.23505,2.035704 -0.81769,0.885829 -2.06126,1.396885 -1.23505,0.511055 -2.80228,0.511055 -1.68649,0 -2.94709,-0.570679 -1.25208,-0.579196 -2.05274,-1.524648 -0.79213,-0.945453 -1.17543,-2.08681 -0.38329,-1.141357 -0.38329,-2.265679 z m 2.98116,-0.161834 q 0,1.277638 0.18739,2.521207 0.1959,1.23505 0.99655,2.316784 0.80066,1.073217 2.41048,1.073217 2.25716,0 2.88747,-1.814247 0.63881,-1.822765 0.63881,-3.71367 0,-1.473543 -0.25552,-2.759699 -0.25553,-1.286156 -1.04767,-2.197538 -0.78361,-0.9199 -2.22309,-0.9199 -1.61834,0 -2.41899,1.047664 -0.79214,1.039146 -0.98804,2.214573 -0.18739,1.175428 -0.18739,2.231609 z"
             inkscape:connector-curvature="0" />
          <path
             id="path845"
             style="font-style:normal;font-variant:normal;font-weight:bold;font-stretch:normal;font-size:17.44402504px;font-family:'Perpetua Titling MT';-inkscape-font-specification:'Perpetua Titling MT, Bold';font-variant-ligatures:normal;font-variant-caps:normal;font-variant-numeric:normal;font-feature-settings:normal;text-align:start;writing-mode:lr-tb;text-anchor:start;fill:#952200;fill-opacity:1;stroke-width:0.26458332;stroke-miterlimit:4;stroke-dasharray:none"
             d="m 233.293,68.154375 h -0.33219 q -0.3407,-1.175427 -1.08173,-1.848317 -0.74103,-0.681407 -1.79721,-0.681407 -0.51958,0 -0.95397,0.21294 -0.42588,0.204422 -0.68141,0.596231 -0.24701,0.383292 -0.24701,0.88583 0,0.289598 0.0937,0.570678 0.10221,0.281081 0.47699,0.689925 0.37477,0.408844 1.14135,0.902865 0.86028,0.536608 1.04767,0.681407 1.07321,0.672889 1.75462,1.252086 0.68141,0.579196 1.03915,1.252085 0.35774,0.67289 0.35774,1.524649 0,0.783618 -0.30664,1.430955 -0.29811,0.638819 -0.86027,1.115805 -0.55365,0.468467 -1.32875,0.732512 -0.76658,0.255528 -1.66945,0.255528 -0.92841,0 -2.14643,-0.349221 -0.13628,-0.03407 -0.34922,-0.07666 -0.20442,-0.04259 -0.36626,-0.04259 -0.40032,0 -0.57919,0.417361 h -0.29812 l 0.0767,-3.543317 h 0.33219 q 0.16183,1.005076 0.68992,1.677965 0.53661,0.67289 1.2095,0.979523 0.67289,0.298116 1.32023,0.298116 0.94545,0 1.55871,-0.528091 0.62179,-0.52809 0.62179,-1.286156 0,-0.511055 -0.26405,-0.885829 -0.25552,-0.383292 -0.7751,-0.749548 -0.51957,-0.374774 -1.95904,-1.294674 -0.75807,-0.49402 -1.29468,-0.95397 -0.52809,-0.45995 -0.8262,-0.877312 -0.29812,-0.42588 -0.42588,-0.843241 -0.11925,-0.42588 -0.11925,-0.902865 0,-0.9199 0.46847,-1.814247 0.47698,-0.894347 1.34578,-1.456508 0.86879,-0.570678 1.9846,-0.570678 0.51957,0 0.99655,0.102211 0.12777,0.01704 0.34071,0.07666 0.21294,0.05111 0.35774,0.08518 0.37477,0.06814 0.56216,0.06814 0.2896,0 0.40032,-0.09369 0.11925,-0.09369 0.22146,-0.272563 h 0.26405 z"
             inkscape:connector-curvature="0" />
          <path
             id="path847"
             style="font-style:normal;font-variant:normal;font-weight:bold;font-stretch:normal;font-size:17.44402504px;font-family:'Perpetua Titling MT';-inkscape-font-specification:'Perpetua Titling MT, Bold';font-variant-ligatures:normal;font-variant-caps:normal;font-variant-numeric:normal;font-feature-settings:normal;text-align:start;writing-mode:lr-tb;text-anchor:start;fill:#952200;fill-opacity:1;stroke-width:0.26458332;stroke-miterlimit:4;stroke-dasharray:none"
             d="m 243.84629,65.045455 0.10221,2.810805 h -0.24701 q -0.17035,-0.70696 -0.38329,-1.16691 -0.20442,-0.45995 -0.58771,-0.698443 -0.38329,-0.24701 -1.04767,-0.24701 h -2.52972 v 5.272389 h 2.01867 q 0.90286,0 1.31171,-0.400327 0.41736,-0.400327 0.4855,-1.183945 h 0.24701 v 3.679599 h -0.24701 q -0.12776,-0.834724 -0.62178,-1.115804 -0.49402,-0.281081 -1.17543,-0.281081 h -2.01867 v 3.611459 q 0,1.567236 1.61834,1.567236 h 0.76659 q 0.7751,0 1.2606,-0.204422 0.49402,-0.204422 0.80917,-0.698442 0.32367,-0.502538 0.5792,-1.41392 h 0.24701 l -0.18739,3.015227 h -9.45453 v -0.247011 q 0.98804,0 1.27764,-0.442914 0.2896,-0.451433 0.2896,-1.175428 V 66.93636 q 0,-0.689925 -0.26405,-1.16691 -0.26404,-0.476985 -1.21801,-0.476985 h -0.0852 v -0.24701 z"
             inkscape:connector-curvature="0" />
          <path
             id="path849"
             style="font-style:normal;font-variant:normal;font-weight:bold;font-stretch:normal;font-size:17.44402504px;font-family:'Perpetua Titling MT';-inkscape-font-specification:'Perpetua Titling MT, Bold';font-variant-ligatures:normal;font-variant-caps:normal;font-variant-numeric:normal;font-feature-settings:normal;text-align:start;writing-mode:lr-tb;text-anchor:start;fill:#952200;fill-opacity:1;stroke-width:0.26458332;stroke-miterlimit:4;stroke-dasharray:none"
             d="M 247.12556,76.740107 V 66.90229 q 0,-0.647337 -0.27256,-1.124322 -0.27256,-0.485503 -1.21802,-0.485503 h -0.10221 v -0.24701 h 5.89417 v 0.24701 q -0.99655,0 -1.2606,0.442915 -0.25553,0.434397 -0.25553,1.16691 v 9.343796 q 0,0.851759 -0.16183,1.669448 -0.15332,0.826206 -0.80917,1.533166 -0.65586,0.70696 -2.01015,0.70696 -0.87732,0 -1.47355,-0.366256 -0.59623,-0.366257 -0.90286,-0.894347 -0.30663,-0.519573 -0.40033,-0.988041 l 0.22998,-0.08518 q 0.43439,0.902865 1.36281,0.902865 1.37985,0 1.37985,-1.984598 z"
             inkscape:connector-curvature="0" />
          <path
             id="path851"
             style="font-style:normal;font-variant:normal;font-weight:bold;font-stretch:normal;font-size:17.44402504px;font-family:'Perpetua Titling MT';-inkscape-font-specification:'Perpetua Titling MT, Bold';font-variant-ligatures:normal;font-variant-caps:normal;font-variant-numeric:normal;font-feature-settings:normal;text-align:start;writing-mode:lr-tb;text-anchor:start;fill:#952200;fill-opacity:1;stroke-width:0.26458332;stroke-miterlimit:4;stroke-dasharray:none"
             d="m 259.66346,68.154375 h -0.33219 q -0.3407,-1.175427 -1.08173,-1.848317 -0.74103,-0.681407 -1.79721,-0.681407 -0.51958,0 -0.95397,0.21294 -0.42588,0.204422 -0.68141,0.596231 -0.24701,0.383292 -0.24701,0.88583 0,0.289598 0.0937,0.570678 0.10221,0.281081 0.47699,0.689925 0.37477,0.408844 1.14135,0.902865 0.86028,0.536608 1.04767,0.681407 1.07321,0.672889 1.75462,1.252086 0.68141,0.579196 1.03915,1.252085 0.35774,0.67289 0.35774,1.524649 0,0.783618 -0.30664,1.430955 -0.29811,0.638819 -0.86027,1.115805 -0.55365,0.468467 -1.32875,0.732512 -0.76658,0.255528 -1.66945,0.255528 -0.92841,0 -2.14643,-0.349221 -0.13628,-0.03407 -0.34922,-0.07666 -0.20442,-0.04259 -0.36626,-0.04259 -0.40032,0 -0.57919,0.417361 h -0.29812 l 0.0767,-3.543317 h 0.33219 q 0.16183,1.005076 0.68992,1.677965 0.53661,0.67289 1.2095,0.979523 0.67289,0.298116 1.32023,0.298116 0.94545,0 1.55872,-0.528091 0.62178,-0.52809 0.62178,-1.286156 0,-0.511055 -0.26405,-0.885829 -0.25552,-0.383292 -0.7751,-0.749548 -0.51957,-0.374774 -1.95904,-1.294674 -0.75807,-0.49402 -1.29468,-0.95397 -0.52809,-0.45995 -0.8262,-0.877312 -0.29812,-0.42588 -0.42588,-0.843241 -0.11925,-0.42588 -0.11925,-0.902865 0,-0.9199 0.46847,-1.814247 0.47698,-0.894347 1.34578,-1.456508 0.86879,-0.570678 1.9846,-0.570678 0.51957,0 0.99656,0.102211 0.12776,0.01704 0.3407,0.07666 0.21294,0.05111 0.35774,0.08518 0.37477,0.06814 0.56216,0.06814 0.2896,0 0.40033,-0.09369 0.11924,-0.09369 0.22145,-0.272563 h 0.26405 z"
             inkscape:connector-curvature="0" />
          <path
             id="path853"
             style="font-style:normal;font-variant:normal;font-weight:bold;font-stretch:normal;font-size:17.44402504px;font-family:'Perpetua Titling MT';-inkscape-font-specification:'Perpetua Titling MT, Bold';font-variant-ligatures:normal;font-variant-caps:normal;font-variant-numeric:normal;font-feature-settings:normal;text-align:start;writing-mode:lr-tb;text-anchor:start;fill:#952200;fill-opacity:1;stroke-width:0.26458332;stroke-miterlimit:4;stroke-dasharray:none"
             d="m 266.30718,70.632994 v 1.499096 h -4.7443 v -1.499096 z"
             inkscape:connector-curvature="0" />
          <path
             id="path855"
             style="font-style:normal;font-variant:normal;font-weight:bold;font-stretch:normal;font-size:17.44402504px;font-family:'Perpetua Titling MT';-inkscape-font-specification:'Perpetua Titling MT, Bold';font-variant-ligatures:normal;font-variant-caps:normal;font-variant-numeric:normal;font-feature-settings:normal;text-align:start;writing-mode:lr-tb;text-anchor:start;fill:#952200;fill-opacity:1;stroke-width:0.26458332;stroke-miterlimit:4;stroke-dasharray:none"
             d="m 278.94728,69.355356 h -0.29812 q -0.13628,-0.911382 -0.52809,-1.618342 -0.38329,-0.70696 -0.93694,-1.16691 -0.54512,-0.468468 -1.23505,-0.70696 -0.6814,-0.238493 -1.44799,-0.238493 -1.02211,0 -1.80573,0.434397 -0.7751,0.434397 -1.19246,1.081734 -0.50254,0.817689 -0.70696,1.814247 -0.20442,0.98804 -0.20442,2.112362 0,2.044222 0.71548,3.270755 0.71547,1.226533 1.72055,1.712036 1.01359,0.476985 1.99312,0.476985 2.36789,0 4.10547,-2.316785 v 1.149875 q -0.57067,0.664372 -1.22653,1.175427 -0.65585,0.511056 -1.63538,0.851759 -0.97952,0.340704 -2.29123,0.340704 -1.5502,0 -2.76821,-0.519573 -1.2095,-0.528091 -2.01016,-1.41392 -0.80065,-0.885829 -1.20949,-2.027187 -0.40885,-1.141357 -0.40885,-2.350854 0,-1.039146 0.26405,-1.933493 0.26404,-0.894347 0.71547,-1.584272 0.45144,-0.698443 1.07322,-1.294674 1.0647,-0.971005 2.21457,-1.320227 1.14988,-0.357738 2.47862,-0.357738 1.31171,0 2.86191,0.434397 0.54513,0.127764 0.80066,0.127764 0.46846,0 0.71547,-0.613267 h 0.24702 z"
             inkscape:connector-curvature="0" />
          <path
             id="path857"
             style="font-style:normal;font-variant:normal;font-weight:bold;font-stretch:normal;font-size:17.44402504px;font-family:'Perpetua Titling MT';-inkscape-font-specification:'Perpetua Titling MT, Bold';font-variant-ligatures:normal;font-variant-caps:normal;font-variant-numeric:normal;font-feature-settings:normal;text-align:start;writing-mode:lr-tb;text-anchor:start;fill:#952200;fill-opacity:1;stroke-width:0.26458332;stroke-miterlimit:4;stroke-dasharray:none"
             d="m 289.25357,77.591866 h -9.55674 v -0.247011 q 0.97953,0 1.26061,-0.434397 0.28959,-0.442914 0.28959,-1.183945 v -8.807188 q 0,-0.817689 -0.35773,-1.218016 -0.34923,-0.408844 -1.19247,-0.408844 v -0.24701 h 5.92825 v 0.24701 q -0.97953,0 -1.28616,0.442915 -0.29812,0.434397 -0.29812,1.183945 v 8.389826 q 0,0.775101 0.29812,1.183945 0.29812,0.400327 1.16691,0.400327 h 0.86879 q 0.88583,0 1.66945,-0.451432 0.78362,-0.451432 1.39689,-2.095327 h 0.24701 z"
             inkscape:connector-curvature="0" />
          <path
             id="path859"
             style="font-style:normal;font-variant:normal;font-weight:bold;font-stretch:normal;font-size:17.44402504px;font-family:'Perpetua Titling MT';-inkscape-font-specification:'Perpetua Titling MT, Bold';font-variant-ligatures:normal;font-variant-caps:normal;font-variant-numeric:normal;font-feature-settings:normal;text-align:start;writing-mode:lr-tb;text-anchor:start;fill:#952200;fill-opacity:1;stroke-width:0.26458332;stroke-miterlimit:4;stroke-dasharray:none"
             d="m 290.22457,65.27543 v -0.229975 h 5.89418 v 0.24701 q -0.97953,0 -1.26913,0.451432 -0.28108,0.442915 -0.28108,1.175428 v 8.807188 q 0,0.417362 0.0767,0.749548 0.0767,0.332186 0.40033,0.604749 0.33219,0.264045 1.00508,0.264045 h 0.0681 v 0.247011 h -5.89418 v -0.247011 q 0.97101,0 1.26061,-0.442914 0.28959,-0.442915 0.28959,-1.175428 v -8.807188 q 0,-0.868794 -0.38329,-1.252086 -0.37477,-0.391809 -1.16691,-0.391809 z"
             inkscape:connector-curvature="0" />
        </g>
        <g
           id="text5748"
           style="font-style:italic;font-variant:normal;font-weight:bold;font-stretch:normal;font-size:7.25757504px;line-height:1.25;font-family:Ubuntu;-inkscape-font-specification:'Ubuntu, Bold Italic';font-variant-ligatures:normal;font-variant-caps:normal;font-variant-numeric:normal;font-feature-settings:normal;text-align:start;letter-spacing:0px;word-spacing:0px;writing-mode:lr-tb;text-anchor:start;fill:#000000;fill-opacity:1;stroke:none;stroke-width:0.18143763"
           transform="scale(0.66852011,1.4958413)"
           aria-label="Generate Models, Migrations, Seeders for Mongoose from the">
          <path
             id="path862"
             style="font-style:italic;font-variant:normal;font-weight:bold;font-stretch:normal;font-size:7.25757504px;font-family:Ubuntu;-inkscape-font-specification:'Ubuntu, Bold Italic';font-variant-ligatures:normal;font-variant-caps:normal;font-variant-numeric:normal;font-feature-settings:normal;text-align:start;writing-mode:lr-tb;text-anchor:start;stroke-width:0.18143763"
             d="m 171.41083,70.166521 q 0.14515,0 0.26128,-0.0073 0.11612,-0.01451 0.21046,-0.02903 l 0.42094,-1.749076 h 1.13219 l -0.60964,2.518379 q -0.20321,0.07983 -0.58786,0.152409 -0.38466,0.07983 -0.97978,0.07983 -0.50803,0 -0.89994,-0.145151 -0.38465,-0.152409 -0.64592,-0.428197 -0.26127,-0.275788 -0.39191,-0.667697 -0.13064,-0.391909 -0.13064,-0.885424 0,-0.566091 0.19596,-1.124924 0.20321,-0.558834 0.59512,-0.994288 0.39191,-0.442712 0.97252,-0.7185 0.5806,-0.275788 1.33539,-0.275788 0.34836,0 0.73301,0.101606 0.39191,0.101606 0.70399,0.304818 l -0.40643,0.878167 q -0.25401,-0.159667 -0.54431,-0.2395 -0.28305,-0.07983 -0.55884,-0.07983 -0.44271,0 -0.79107,0.166924 -0.34111,0.166924 -0.58061,0.457227 -0.2395,0.283045 -0.36288,0.660439 -0.12338,0.377394 -0.12338,0.798334 0,0.638666 0.26128,0.936227 0.26853,0.290303 0.79107,0.290303 z"
             inkscape:connector-curvature="0" />
          <path
             id="path864"
             style="font-style:italic;font-variant:normal;font-weight:bold;font-stretch:normal;font-size:7.25757504px;font-family:Ubuntu;-inkscape-font-specification:'Ubuntu, Bold Italic';font-variant-ligatures:normal;font-variant-caps:normal;font-variant-numeric:normal;font-feature-settings:normal;text-align:start;writing-mode:lr-tb;text-anchor:start;stroke-width:0.18143763"
             d="m 174.01267,69.542369 q 0,-0.464484 0.15967,-0.899939 0.16692,-0.435454 0.46448,-0.769303 0.29757,-0.341106 0.7185,-0.544318 0.4282,-0.21047 0.94349,-0.21047 0.25401,0 0.47174,0.07258 0.21773,0.07258 0.3774,0.21047 0.16692,0.137894 0.25401,0.341106 0.0943,0.195954 0.0943,0.449969 0,0.406425 -0.18144,0.68947 -0.18144,0.283045 -0.50803,0.464485 -0.31933,0.174182 -0.76205,0.254015 -0.44271,0.07983 -0.96525,0.07983 0.0508,0.304818 0.21772,0.435455 0.17419,0.123379 0.54432,0.123379 0.23224,0 0.47174,-0.03629 0.2395,-0.04355 0.44997,-0.123379 l 0.0798,0.849136 q -0.20321,0.07983 -0.52255,0.145152 -0.31207,0.06532 -0.68221,0.06532 -0.44997,0 -0.76205,-0.123379 -0.30481,-0.130636 -0.50077,-0.348364 -0.18869,-0.217727 -0.27579,-0.50803 -0.0871,-0.290303 -0.0871,-0.616894 z m 2.11196,-1.567636 q -0.37014,0 -0.65318,0.26853 -0.27579,0.261273 -0.36288,0.696728 0.44997,-0.01452 0.72575,-0.07258 0.27579,-0.06532 0.4282,-0.152409 0.15241,-0.08709 0.20321,-0.188697 0.0508,-0.101606 0.0508,-0.203212 0,-0.348364 -0.39191,-0.348364 z"
             inkscape:connector-curvature="0" />
          <path
             id="path866"
             style="font-style:italic;font-variant:normal;font-weight:bold;font-stretch:normal;font-size:7.25757504px;font-family:Ubuntu;-inkscape-font-specification:'Ubuntu, Bold Italic';font-variant-ligatures:normal;font-variant-caps:normal;font-variant-numeric:normal;font-feature-settings:normal;text-align:start;writing-mode:lr-tb;text-anchor:start;stroke-width:0.18143763"
             d="m 178.51452,67.394127 q 0.12338,-0.03629 0.26853,-0.07983 0.15241,-0.0508 0.33385,-0.08709 0.1887,-0.04355 0.41368,-0.06532 0.23225,-0.02903 0.52255,-0.02903 0.85639,0 1.17573,0.493516 0.31933,0.493515 0.10886,1.349908 l -0.49351,2.061152 h -1.08138 l 0.479,-2.017606 q 0.0435,-0.188697 0.0653,-0.362879 0.029,-0.181439 0,-0.312076 -0.029,-0.137893 -0.1379,-0.217727 -0.1016,-0.08709 -0.31933,-0.08709 -0.21047,0 -0.4282,0.04355 l -0.70398,2.953833 h -1.08138 z"
             inkscape:connector-curvature="0" />
          <path
             id="path868"
             style="font-style:italic;font-variant:normal;font-weight:bold;font-stretch:normal;font-size:7.25757504px;font-family:Ubuntu;-inkscape-font-specification:'Ubuntu, Bold Italic';font-variant-ligatures:normal;font-variant-caps:normal;font-variant-numeric:normal;font-feature-settings:normal;text-align:start;writing-mode:lr-tb;text-anchor:start;stroke-width:0.18143763"
             d="m 181.96482,69.542369 q 0,-0.464484 0.15967,-0.899939 0.16692,-0.435454 0.46448,-0.769303 0.29756,-0.341106 0.7185,-0.544318 0.4282,-0.21047 0.94349,-0.21047 0.25401,0 0.47174,0.07258 0.21773,0.07258 0.37739,0.21047 0.16693,0.137894 0.25402,0.341106 0.0944,0.195954 0.0944,0.449969 0,0.406425 -0.18144,0.68947 -0.18144,0.283045 -0.50803,0.464485 -0.31934,0.174182 -0.76205,0.254015 -0.44271,0.07983 -0.96526,0.07983 0.0508,0.304818 0.21773,0.435455 0.17418,0.123379 0.54432,0.123379 0.23224,0 0.47174,-0.03629 0.2395,-0.04355 0.44997,-0.123379 l 0.0798,0.849136 q -0.20322,0.07983 -0.52255,0.145152 -0.31208,0.06532 -0.68221,0.06532 -0.44997,0 -0.76205,-0.123379 -0.30482,-0.130636 -0.50077,-0.348364 -0.1887,-0.217727 -0.27579,-0.50803 -0.0871,-0.290303 -0.0871,-0.616895 z m 2.11196,-1.567636 q -0.37014,0 -0.65319,0.26853 -0.27578,0.261273 -0.36288,0.696728 0.44997,-0.01452 0.72576,-0.07258 0.27579,-0.06532 0.4282,-0.152409 0.15241,-0.08709 0.20321,-0.188697 0.0508,-0.101606 0.0508,-0.203212 0,-0.348364 -0.3919,-0.348364 z"
             inkscape:connector-curvature="0" />
          <path
             id="path870"
             style="font-style:italic;font-variant:normal;font-weight:bold;font-stretch:normal;font-size:7.25757504px;font-family:Ubuntu;-inkscape-font-specification:'Ubuntu, Bold Italic';font-variant-ligatures:normal;font-variant-caps:normal;font-variant-numeric:normal;font-feature-settings:normal;text-align:start;writing-mode:lr-tb;text-anchor:start;stroke-width:0.18143763"
             d="m 188.50605,68.148915 q -0.14515,-0.03629 -0.2903,-0.06532 -0.1379,-0.03629 -0.41368,-0.03629 -0.10161,0 -0.22499,0.02177 -0.12338,0.01452 -0.20321,0.03629 l -0.70399,2.932061 h -1.08137 l 0.8709,-3.614273 q 0.31208,-0.101606 0.69673,-0.188697 0.39191,-0.09435 0.87817,-0.09435 0.18144,0 0.39916,0.03629 0.22499,0.02903 0.39191,0.101606 z"
             inkscape:connector-curvature="0" />
          <path
             id="path872"
             style="font-style:italic;font-variant:normal;font-weight:bold;font-stretch:normal;font-size:7.25757504px;font-family:Ubuntu;-inkscape-font-specification:'Ubuntu, Bold Italic';font-variant-ligatures:normal;font-variant-caps:normal;font-variant-numeric:normal;font-feature-settings:normal;text-align:start;writing-mode:lr-tb;text-anchor:start;stroke-width:0.18143763"
             d="m 192.14323,69.38996 q -0.10161,0.413682 -0.0581,0.834621 0.0435,0.413682 0.16692,0.740273 l -0.96525,0.137894 q -0.0436,-0.08709 -0.0798,-0.166924 -0.0363,-0.07983 -0.0726,-0.18144 -0.20322,0.166925 -0.44997,0.275788 -0.24676,0.108864 -0.55158,0.108864 -0.36288,0 -0.62415,-0.123379 -0.25402,-0.130636 -0.42094,-0.341106 -0.15967,-0.217727 -0.23224,-0.500773 -0.0726,-0.290303 -0.0726,-0.616893 0,-0.500773 0.17418,-0.943485 0.18144,-0.442712 0.49352,-0.769303 0.31933,-0.333849 0.74753,-0.522546 0.4282,-0.188697 0.92897,-0.188697 0.0653,0 0.22498,0.0073 0.16693,0.0073 0.3774,0.03629 0.21047,0.02177 0.44271,0.07983 0.23224,0.05806 0.44271,0.159667 z m -0.75479,-1.335394 q -0.0943,-0.01451 -0.17418,-0.02177 -0.0726,-0.0073 -0.18144,-0.0073 -0.24676,0 -0.46448,0.123379 -0.21047,0.123379 -0.37014,0.326591 -0.15967,0.195954 -0.25402,0.457227 -0.0871,0.261273 -0.0871,0.544318 0,0.348364 0.11612,0.551576 0.11613,0.203212 0.4282,0.203212 0.16693,0 0.29756,-0.06532 0.1379,-0.06532 0.29031,-0.217727 0.0145,-0.18144 0.0435,-0.377394 0.0363,-0.203212 0.0726,-0.370137 z"
             inkscape:connector-curvature="0" />
          <path
             id="path874"
             style="font-style:italic;font-variant:normal;font-weight:bold;font-stretch:normal;font-size:7.25757504px;font-family:Ubuntu;-inkscape-font-specification:'Ubuntu, Bold Italic';font-variant-ligatures:normal;font-variant-caps:normal;font-variant-numeric:normal;font-feature-settings:normal;text-align:start;writing-mode:lr-tb;text-anchor:start;stroke-width:0.18143763"
             d="m 193.86974,66.269203 1.12492,-0.174182 -0.27578,1.124924 h 1.20475 l -0.21772,0.885424 h -1.1975 l -0.31934,1.335394 q -0.0435,0.166925 -0.0581,0.312076 -0.007,0.145152 0.0363,0.254015 0.0508,0.101606 0.16692,0.159667 0.11612,0.05806 0.31934,0.05806 0.17418,0 0.33385,-0.02903 0.16692,-0.03629 0.33384,-0.09435 l 0.0798,0.827363 q -0.21773,0.07983 -0.47175,0.137894 -0.25401,0.05806 -0.60237,0.05806 -0.50078,0 -0.77656,-0.145152 -0.27579,-0.152409 -0.39191,-0.406424 -0.11612,-0.261273 -0.10161,-0.595121 0.0145,-0.333849 0.10161,-0.703985 z"
             inkscape:connector-curvature="0" />
          <path
             id="path876"
             style="font-style:italic;font-variant:normal;font-weight:bold;font-stretch:normal;font-size:7.25757504px;font-family:Ubuntu;-inkscape-font-specification:'Ubuntu, Bold Italic';font-variant-ligatures:normal;font-variant-caps:normal;font-variant-numeric:normal;font-feature-settings:normal;text-align:start;writing-mode:lr-tb;text-anchor:start;stroke-width:0.18143763"
             d="m 195.9555,69.542369 q 0,-0.464484 0.15966,-0.899939 0.16693,-0.435454 0.46449,-0.769303 0.29756,-0.341106 0.7185,-0.544318 0.4282,-0.21047 0.94348,-0.21047 0.25402,0 0.47175,0.07258 0.21772,0.07258 0.37739,0.21047 0.16692,0.137894 0.25402,0.341106 0.0943,0.195954 0.0943,0.449969 0,0.406425 -0.18144,0.68947 -0.18144,0.283045 -0.50803,0.464485 -0.31933,0.174182 -0.76204,0.254015 -0.44271,0.07983 -0.96526,0.07983 0.0508,0.304818 0.21773,0.435455 0.17418,0.123379 0.54432,0.123379 0.23224,0 0.47174,-0.03629 0.2395,-0.04355 0.44997,-0.123379 l 0.0798,0.849136 q -0.20321,0.07983 -0.52254,0.145152 -0.31208,0.06532 -0.68222,0.06532 -0.44997,0 -0.76204,-0.123379 -0.30482,-0.130636 -0.50077,-0.348364 -0.1887,-0.217727 -0.27579,-0.50803 -0.0871,-0.290303 -0.0871,-0.616894 z m 2.11195,-1.567636 q -0.37013,0 -0.65318,0.26853 -0.27579,0.261273 -0.36288,0.696728 0.44997,-0.01452 0.72576,-0.07258 0.27579,-0.06532 0.4282,-0.152409 0.1524,-0.08709 0.20321,-0.188697 0.0508,-0.101606 0.0508,-0.203212 0,-0.348364 -0.39191,-0.348364 z"
             inkscape:connector-curvature="0" />
          <path
             id="path878"
             style="font-style:italic;font-variant:normal;font-weight:bold;font-stretch:normal;font-size:7.25757504px;font-family:Ubuntu;-inkscape-font-specification:'Ubuntu, Bold Italic';font-variant-ligatures:normal;font-variant-caps:normal;font-variant-numeric:normal;font-feature-settings:normal;text-align:start;writing-mode:lr-tb;text-anchor:start;stroke-width:0.18143763"
             d="m 203.83382,66.00793 q 0.0436,0.195955 0.10887,0.558834 0.0726,0.355621 0.14515,0.791075 0.0798,0.428197 0.15966,0.885424 0.0798,0.44997 0.14516,0.827364 0.24675,-0.377394 0.53706,-0.812848 0.2903,-0.435455 0.57334,-0.856394 0.28305,-0.42094 0.53706,-0.783818 0.25402,-0.370137 0.43546,-0.609637 h 1.00154 q -0.0508,0.500773 -0.13789,1.124924 -0.0798,0.624152 -0.1887,1.291849 -0.1016,0.667697 -0.21772,1.342651 -0.11612,0.674955 -0.23225,1.270076 h -1.10315 q 0.15241,-0.740273 0.31934,-1.596667 0.17418,-0.863651 0.31933,-1.741818 -0.1887,0.297561 -0.42094,0.667697 -0.23224,0.362879 -0.46449,0.740273 -0.23224,0.370136 -0.44996,0.711242 -0.21773,0.341106 -0.3774,0.580606 h -0.82736 q -0.0363,-0.217727 -0.0871,-0.551575 -0.0508,-0.333849 -0.11612,-0.703985 -0.0581,-0.377394 -0.12338,-0.754788 -0.0653,-0.384652 -0.12338,-0.68947 -0.28305,0.878167 -0.51529,1.741818 -0.22498,0.856394 -0.42094,1.596667 h -1.09589 q 0.16692,-0.595121 0.36288,-1.270076 0.20321,-0.674954 0.41368,-1.342651 0.21772,-0.674955 0.42819,-1.299106 0.21047,-0.624152 0.39917,-1.117667 z"
             inkscape:connector-curvature="0" />
          <path
             id="path880"
             style="font-style:italic;font-variant:normal;font-weight:bold;font-stretch:normal;font-size:7.25757504px;font-family:Ubuntu;-inkscape-font-specification:'Ubuntu, Bold Italic';font-variant-ligatures:normal;font-variant-caps:normal;font-variant-numeric:normal;font-feature-settings:normal;text-align:start;writing-mode:lr-tb;text-anchor:start;stroke-width:0.18143763"
             d="m 209.42873,71.139036 q -0.38465,0 -0.6677,-0.116121 -0.28304,-0.116122 -0.47174,-0.326591 -0.18144,-0.21047 -0.27579,-0.493515 -0.0943,-0.290303 -0.0943,-0.638667 0,-0.435454 0.13789,-0.870909 0.14515,-0.435454 0.42094,-0.783818 0.27579,-0.348364 0.67495,-0.566091 0.39917,-0.224985 0.91446,-0.224985 0.37739,0 0.66044,0.116121 0.2903,0.116122 0.47174,0.326591 0.1887,0.21047 0.28304,0.500773 0.0943,0.283045 0.0943,0.631409 0,0.435455 -0.13789,0.870909 -0.1379,0.435455 -0.40643,0.783818 -0.26853,0.348364 -0.67495,0.573349 -0.39917,0.217727 -0.92897,0.217727 z m 0.53706,-3.106242 q -0.2395,0 -0.42094,0.137894 -0.18144,0.137894 -0.30482,0.348363 -0.12338,0.21047 -0.18869,0.464485 -0.0581,0.246758 -0.0581,0.471742 0,0.370137 0.11612,0.573349 0.11612,0.195954 0.42094,0.195954 0.2395,0 0.42094,-0.137894 0.18144,-0.137893 0.30481,-0.348363 0.12338,-0.21047 0.18144,-0.457227 0.0653,-0.254015 0.0653,-0.479 0,-0.370137 -0.11612,-0.566091 -0.11612,-0.203212 -0.42094,-0.203212 z"
             inkscape:connector-curvature="0" />
          <path
             id="path882"
             style="font-style:italic;font-variant:normal;font-weight:bold;font-stretch:normal;font-size:7.25757504px;font-family:Ubuntu;-inkscape-font-specification:'Ubuntu, Bold Italic';font-variant-ligatures:normal;font-variant-caps:normal;font-variant-numeric:normal;font-feature-settings:normal;text-align:start;writing-mode:lr-tb;text-anchor:start;stroke-width:0.18143763"
             d="m 213.44376,71.139036 q -0.36288,0 -0.62415,-0.123379 -0.25402,-0.123379 -0.42094,-0.333848 -0.15967,-0.217728 -0.2395,-0.500773 -0.0726,-0.290303 -0.0726,-0.616894 0,-0.493515 0.17419,-0.92897 0.18143,-0.442712 0.49351,-0.769302 0.31208,-0.326591 0.74027,-0.515288 0.4282,-0.188697 0.93623,-0.188697 0.13064,0 0.2395,0.01452 0.11612,0.01452 0.23224,0.04354 l 0.39191,-1.640212 1.12493,-0.174181 -0.958,3.984408 q -0.10161,0.413682 -0.0581,0.834621 0.0435,0.413682 0.16692,0.740273 l -0.96526,0.137894 q -0.0435,-0.08709 -0.0798,-0.166924 -0.0363,-0.07983 -0.0726,-0.18144 -0.20321,0.166925 -0.45722,0.275788 -0.24676,0.108864 -0.55158,0.108864 z m 1.2483,-3.055439 q -0.0435,-0.0073 -0.0798,-0.01452 -0.029,-0.0073 -0.0653,-0.0073 -0.029,-0.0073 -0.0798,-0.0073 -0.0508,0 -0.13064,0 -0.25401,0 -0.47174,0.123379 -0.21773,0.116121 -0.37739,0.319334 -0.15241,0.203212 -0.2395,0.464484 -0.0871,0.254015 -0.0871,0.522546 0,0.348363 0.11613,0.551575 0.12337,0.195955 0.43545,0.195955 0.16692,0 0.30482,-0.06532 0.13789,-0.06532 0.2903,-0.217727 0.0145,-0.18144 0.0435,-0.377394 0.0363,-0.203212 0.0726,-0.370137 z"
             inkscape:connector-curvature="0" />
          <path
             id="path884"
             style="font-style:italic;font-variant:normal;font-weight:bold;font-stretch:normal;font-size:7.25757504px;font-family:Ubuntu;-inkscape-font-specification:'Ubuntu, Bold Italic';font-variant-ligatures:normal;font-variant-caps:normal;font-variant-numeric:normal;font-feature-settings:normal;text-align:start;writing-mode:lr-tb;text-anchor:start;stroke-width:0.18143763"
             d="m 216.36743,69.542369 q 0,-0.464484 0.15966,-0.899939 0.16693,-0.435454 0.46449,-0.769303 0.29756,-0.341106 0.7185,-0.544318 0.4282,-0.21047 0.94348,-0.21047 0.25402,0 0.47175,0.07258 0.21772,0.07258 0.37739,0.21047 0.16692,0.137894 0.25402,0.341106 0.0943,0.195954 0.0943,0.449969 0,0.406425 -0.18144,0.68947 -0.18144,0.283045 -0.50803,0.464485 -0.31933,0.174182 -0.76204,0.254015 -0.44271,0.07983 -0.96526,0.07983 0.0508,0.304818 0.21773,0.435455 0.17418,0.123379 0.54432,0.123379 0.23224,0 0.47174,-0.03629 0.2395,-0.04355 0.44997,-0.123379 l 0.0798,0.849136 q -0.20321,0.07983 -0.52254,0.145152 -0.31208,0.06532 -0.68222,0.06532 -0.44997,0 -0.76204,-0.123379 -0.30482,-0.130636 -0.50077,-0.348364 -0.1887,-0.217727 -0.27579,-0.50803 -0.0871,-0.290303 -0.0871,-0.616894 z m 2.11195,-1.567636 q -0.37013,0 -0.65318,0.26853 -0.27579,0.261273 -0.36288,0.696728 0.44997,-0.01452 0.72576,-0.07258 0.27579,-0.06532 0.4282,-0.152409 0.15241,-0.08709 0.20321,-0.188697 0.0508,-0.101606 0.0508,-0.203212 0,-0.348364 -0.39191,-0.348364 z"
             inkscape:connector-curvature="0" />
          <path
             id="path886"
             style="font-style:italic;font-variant:normal;font-weight:bold;font-stretch:normal;font-size:7.25757504px;font-family:Ubuntu;-inkscape-font-specification:'Ubuntu, Bold Italic';font-variant-ligatures:normal;font-variant-caps:normal;font-variant-numeric:normal;font-feature-settings:normal;text-align:start;writing-mode:lr-tb;text-anchor:start;stroke-width:0.18143763"
             d="m 221.57326,71.110006 q -0.51528,0 -0.81284,-0.130637 -0.29031,-0.137894 -0.42094,-0.370136 -0.12338,-0.232243 -0.12338,-0.529803 0.007,-0.304818 0.0871,-0.645924 l 0.92171,-3.853773 1.12492,-0.174181 -1.0088,4.180363 q -0.029,0.130636 -0.0363,0.2395 0,0.108863 0.0435,0.195954 0.0435,0.07983 0.14515,0.130637 0.10886,0.0508 0.29756,0.06532 z"
             inkscape:connector-curvature="0" />
          <path
             id="path888"
             style="font-style:italic;font-variant:normal;font-weight:bold;font-stretch:normal;font-size:7.25757504px;font-family:Ubuntu;-inkscape-font-specification:'Ubuntu, Bold Italic';font-variant-ligatures:normal;font-variant-caps:normal;font-variant-numeric:normal;font-feature-settings:normal;text-align:start;writing-mode:lr-tb;text-anchor:start;stroke-width:0.18143763"
             d="m 223.51432,70.268127 q 0.37014,0 0.50803,-0.101606 0.1379,-0.108864 0.1379,-0.232243 0,-0.07983 -0.029,-0.137894 -0.0218,-0.05806 -0.0798,-0.108863 -0.0581,-0.0508 -0.15966,-0.101606 -0.10161,-0.05806 -0.26128,-0.130637 -0.18144,-0.07983 -0.3411,-0.166924 -0.15967,-0.09435 -0.28305,-0.217727 -0.11612,-0.130636 -0.18869,-0.290303 -0.0653,-0.166924 -0.0653,-0.391909 0,-0.587864 0.42819,-0.92897 0.43546,-0.341106 1.26282,-0.341106 0.39191,0 0.69673,0.08709 0.30482,0.08709 0.49351,0.188697 l -0.37013,0.805591 q -0.15241,-0.07983 -0.39191,-0.152409 -0.2395,-0.07258 -0.47174,-0.07258 -0.10161,0 -0.20322,0.01452 -0.0943,0.0073 -0.18143,0.04355 -0.0798,0.03629 -0.13064,0.101606 -0.0508,0.06532 -0.0508,0.174182 0,0.145151 0.10886,0.217727 0.11612,0.07258 0.31933,0.174182 0.28305,0.137894 0.47175,0.254015 0.18869,0.116121 0.29756,0.246757 0.11612,0.130637 0.16692,0.297561 0.0508,0.166924 0.0508,0.391909 0,0.232242 -0.1016,0.457227 -0.0943,0.224985 -0.30482,0.399167 -0.21047,0.174182 -0.53706,0.283045 -0.32659,0.108864 -0.78382,0.108864 -0.28304,0 -0.51529,-0.03629 -0.22498,-0.03629 -0.39916,-0.08709 -0.17419,-0.05806 -0.29756,-0.116121 -0.11613,-0.05806 -0.18144,-0.09435 l 0.37013,-0.827363 q 0.12338,0.07258 0.38465,0.181439 0.26128,0.108864 0.63141,0.108864 z"
             inkscape:connector-curvature="0" />
          <path
             id="path890"
             style="font-style:italic;font-variant:normal;font-weight:bold;font-stretch:normal;font-size:7.25757504px;font-family:Ubuntu;-inkscape-font-specification:'Ubuntu, Bold Italic';font-variant-ligatures:normal;font-variant-caps:normal;font-variant-numeric:normal;font-feature-settings:normal;text-align:start;writing-mode:lr-tb;text-anchor:start;stroke-width:0.18143763"
             d="m 227.11476,69.934278 q -0.0218,0.631409 -0.31933,1.1975 -0.29031,0.566091 -0.71125,1.088637 l -0.79107,-0.21047 q 0.27579,-0.479 0.46448,-0.994288 0.1887,-0.515288 0.22499,-1.081379 z"
             inkscape:connector-curvature="0" />
          <path
             id="path892"
             style="font-style:italic;font-variant:normal;font-weight:bold;font-stretch:normal;font-size:7.25757504px;font-family:Ubuntu;-inkscape-font-specification:'Ubuntu, Bold Italic';font-variant-ligatures:normal;font-variant-caps:normal;font-variant-numeric:normal;font-feature-settings:normal;text-align:start;writing-mode:lr-tb;text-anchor:start;stroke-width:0.18143763"
             d="m 231.95693,66.00793 q 0.0435,0.195955 0.10886,0.558834 0.0726,0.355621 0.14515,0.791075 0.0798,0.428197 0.15967,0.885424 0.0798,0.44997 0.14515,0.827364 0.24676,-0.377394 0.53706,-0.812848 0.2903,-0.435455 0.57335,-0.856394 0.28304,-0.42094 0.53706,-0.783818 0.25401,-0.370137 0.43545,-0.609637 h 1.00155 q -0.0508,0.500773 -0.1379,1.124924 -0.0798,0.624152 -0.18869,1.291849 -0.10161,0.667697 -0.21773,1.342651 -0.11612,0.674955 -0.23224,1.270076 h -1.10315 q 0.15241,-0.740273 0.31933,-1.596667 0.17418,-0.863651 0.31933,-1.741818 -0.18869,0.297561 -0.42094,0.667697 -0.23224,0.362879 -0.46448,0.740273 -0.23224,0.370136 -0.44997,0.711242 -0.21773,0.341106 -0.37739,0.580606 h -0.82737 q -0.0363,-0.217727 -0.0871,-0.551575 -0.0508,-0.333849 -0.11612,-0.703985 -0.0581,-0.377394 -0.12338,-0.754788 -0.0653,-0.384652 -0.12338,-0.68947 -0.28304,0.878167 -0.51529,1.741818 -0.22498,0.856394 -0.42093,1.596667 h -1.0959 q 0.16693,-0.595121 0.36288,-1.270076 0.20321,-0.674954 0.41368,-1.342651 0.21773,-0.674955 0.4282,-1.299106 0.21047,-0.624152 0.39917,-1.117667 z"
             inkscape:connector-curvature="0" />
          <path
             id="path894"
             style="font-style:italic;font-variant:normal;font-weight:bold;font-stretch:normal;font-size:7.25757504px;font-family:Ubuntu;-inkscape-font-specification:'Ubuntu, Bold Italic';font-variant-ligatures:normal;font-variant-caps:normal;font-variant-numeric:normal;font-feature-settings:normal;text-align:start;writing-mode:lr-tb;text-anchor:start;stroke-width:0.18143763"
             d="m 236.89866,71.03743 h -1.07412 l 0.90719,-3.817485 h 1.08138 z m 0.52254,-4.281969 q -0.22498,0 -0.40642,-0.130637 -0.18144,-0.137894 -0.18144,-0.413682 0,-0.152409 0.0581,-0.283045 0.0653,-0.137894 0.16692,-0.232242 0.10161,-0.101606 0.23225,-0.159667 0.13789,-0.05806 0.2903,-0.05806 0.22498,0 0.40642,0.137894 0.18144,0.130637 0.18144,0.406424 0,0.15241 -0.0653,0.290303 -0.0581,0.130637 -0.15966,0.232243 -0.10161,0.09435 -0.2395,0.152409 -0.13064,0.05806 -0.28305,0.05806 z"
             inkscape:connector-curvature="0" />
          <path
             id="path896"
             style="font-style:italic;font-variant:normal;font-weight:bold;font-stretch:normal;font-size:7.25757504px;font-family:Ubuntu;-inkscape-font-specification:'Ubuntu, Bold Italic';font-variant-ligatures:normal;font-variant-caps:normal;font-variant-numeric:normal;font-feature-settings:normal;text-align:start;writing-mode:lr-tb;text-anchor:start;stroke-width:0.18143763"
             d="m 241.17484,70.55843 q -0.10886,0.471742 -0.2903,0.812848 -0.17418,0.348364 -0.44271,0.573349 -0.26128,0.232242 -0.63141,0.341106 -0.37014,0.116121 -0.86365,0.116121 -0.45723,0 -0.76931,-0.08709 -0.31207,-0.07983 -0.56609,-0.203212 l 0.36288,-0.856394 q 0.22499,0.101606 0.46449,0.174182 0.24675,0.07258 0.60237,0.07258 0.46449,0 0.69673,-0.21047 0.2395,-0.203212 0.31208,-0.529803 l 0.029,-0.137894 q -0.14515,0.07258 -0.31208,0.116121 -0.15966,0.04355 -0.3411,0.04355 -0.34111,0 -0.58787,-0.101606 -0.24676,-0.108864 -0.40642,-0.297561 -0.15241,-0.188697 -0.23224,-0.442712 -0.0726,-0.261273 -0.0726,-0.566091 0,-0.551576 0.20321,-0.972515 0.20321,-0.428197 0.53706,-0.711242 0.34111,-0.283046 0.77656,-0.428197 0.44272,-0.145152 0.92171,-0.145152 0.34837,0 0.68947,0.07258 0.34111,0.07258 0.6677,0.224985 z m -0.479,-2.503864 q -0.12338,-0.02903 -0.30482,-0.02903 -0.27578,0 -0.49351,0.101606 -0.21773,0.09435 -0.3774,0.261273 -0.1524,0.166924 -0.2395,0.406424 -0.0798,0.232243 -0.0798,0.500773 0,0.130636 0.0218,0.246757 0.0218,0.108864 0.0798,0.195955 0.0581,0.07983 0.15966,0.130636 0.10161,0.0508 0.25402,0.0508 0.1016,0 0.26853,-0.03629 0.17418,-0.03629 0.31207,-0.166924 z"
             inkscape:connector-curvature="0" />
          <path
             id="path898"
             style="font-style:italic;font-variant:normal;font-weight:bold;font-stretch:normal;font-size:7.25757504px;font-family:Ubuntu;-inkscape-font-specification:'Ubuntu, Bold Italic';font-variant-ligatures:normal;font-variant-caps:normal;font-variant-numeric:normal;font-feature-settings:normal;text-align:start;writing-mode:lr-tb;text-anchor:start;stroke-width:0.18143763"
             d="m 244.90818,68.148915 q -0.14515,-0.03629 -0.2903,-0.06532 -0.1379,-0.03629 -0.41368,-0.03629 -0.10161,0 -0.22499,0.02177 -0.12338,0.01452 -0.20321,0.03629 l -0.70399,2.932061 h -1.08137 l 0.8709,-3.614273 q 0.31208,-0.101606 0.69673,-0.188697 0.39191,-0.09435 0.87817,-0.09435 0.18144,0 0.39916,0.03629 0.22499,0.02903 0.39191,0.101606 z"
             inkscape:connector-curvature="0" />
          <path
             id="path900"
             style="font-style:italic;font-variant:normal;font-weight:bold;font-stretch:normal;font-size:7.25757504px;font-family:Ubuntu;-inkscape-font-specification:'Ubuntu, Bold Italic';font-variant-ligatures:normal;font-variant-caps:normal;font-variant-numeric:normal;font-feature-settings:normal;text-align:start;writing-mode:lr-tb;text-anchor:start;stroke-width:0.18143763"
             d="m 248.54536,69.38996 q -0.10161,0.413682 -0.0581,0.834621 0.0435,0.413682 0.16692,0.740273 l -0.96526,0.137894 q -0.0435,-0.08709 -0.0798,-0.166924 -0.0363,-0.07983 -0.0726,-0.18144 -0.20321,0.166925 -0.44996,0.275788 -0.24676,0.108864 -0.55158,0.108864 -0.36288,0 -0.62415,-0.123379 -0.25402,-0.130636 -0.42094,-0.341106 -0.15967,-0.217727 -0.23224,-0.500773 -0.0726,-0.290303 -0.0726,-0.616893 0,-0.500773 0.17418,-0.943485 0.18144,-0.442712 0.49352,-0.769303 0.31933,-0.333849 0.74753,-0.522546 0.42819,-0.188697 0.92897,-0.188697 0.0653,0 0.22498,0.0073 0.16693,0.0073 0.3774,0.03629 0.21047,0.02177 0.44271,0.07983 0.23224,0.05806 0.44271,0.159667 z m -0.75479,-1.335394 q -0.0943,-0.01451 -0.17418,-0.02177 -0.0726,-0.0073 -0.18144,-0.0073 -0.24676,0 -0.46449,0.123379 -0.21047,0.123379 -0.37013,0.326591 -0.15967,0.195954 -0.25402,0.457227 -0.0871,0.261273 -0.0871,0.544318 0,0.348364 0.11612,0.551576 0.11612,0.203212 0.4282,0.203212 0.16692,0 0.29756,-0.06532 0.13789,-0.06532 0.2903,-0.217727 0.0145,-0.18144 0.0435,-0.377394 0.0363,-0.203212 0.0726,-0.370137 z"
             inkscape:connector-curvature="0" />
          <path
             id="path902"
             style="font-style:italic;font-variant:normal;font-weight:bold;font-stretch:normal;font-size:7.25757504px;font-family:Ubuntu;-inkscape-font-specification:'Ubuntu, Bold Italic';font-variant-ligatures:normal;font-variant-caps:normal;font-variant-numeric:normal;font-feature-settings:normal;text-align:start;writing-mode:lr-tb;text-anchor:start;stroke-width:0.18143763"
             d="m 250.27187,66.269203 1.12492,-0.174182 -0.27578,1.124924 h 1.20475 l -0.21772,0.885424 h -1.1975 l -0.31934,1.335394 q -0.0435,0.166925 -0.0581,0.312076 -0.007,0.145152 0.0363,0.254015 0.0508,0.101606 0.16692,0.159667 0.11613,0.05806 0.31934,0.05806 0.17418,0 0.33385,-0.02903 0.16692,-0.03629 0.33384,-0.09435 l 0.0798,0.827363 q -0.21773,0.07983 -0.47175,0.137894 -0.25401,0.05806 -0.60237,0.05806 -0.50078,0 -0.77656,-0.145152 -0.27579,-0.152409 -0.39191,-0.406424 -0.11612,-0.261273 -0.10161,-0.595121 0.0145,-0.333849 0.10161,-0.703985 z"
             inkscape:connector-curvature="0" />
          <path
             id="path904"
             style="font-style:italic;font-variant:normal;font-weight:bold;font-stretch:normal;font-size:7.25757504px;font-family:Ubuntu;-inkscape-font-specification:'Ubuntu, Bold Italic';font-variant-ligatures:normal;font-variant-caps:normal;font-variant-numeric:normal;font-feature-settings:normal;text-align:start;writing-mode:lr-tb;text-anchor:start;stroke-width:0.18143763"
             d="m 253.32742,71.03743 h -1.07412 l 0.9072,-3.817485 h 1.08138 z m 0.52255,-4.281969 q -0.22499,0 -0.40643,-0.130637 -0.18144,-0.137894 -0.18144,-0.413682 0,-0.152409 0.0581,-0.283045 0.0653,-0.137894 0.16693,-0.232242 0.1016,-0.101606 0.23224,-0.159667 0.13789,-0.05806 0.2903,-0.05806 0.22499,0 0.40643,0.137894 0.18144,0.130637 0.18144,0.406424 0,0.15241 -0.0653,0.290303 -0.0581,0.130637 -0.15967,0.232243 -0.1016,0.09435 -0.2395,0.152409 -0.13063,0.05806 -0.28304,0.05806 z"
             inkscape:connector-curvature="0" />
          <path
             id="path906"
             style="font-style:italic;font-variant:normal;font-weight:bold;font-stretch:normal;font-size:7.25757504px;font-family:Ubuntu;-inkscape-font-specification:'Ubuntu, Bold Italic';font-variant-ligatures:normal;font-variant-caps:normal;font-variant-numeric:normal;font-feature-settings:normal;text-align:start;writing-mode:lr-tb;text-anchor:start;stroke-width:0.18143763"
             d="m 256.03597,71.139036 q -0.38465,0 -0.6677,-0.116121 -0.28304,-0.116122 -0.47174,-0.326591 -0.18144,-0.21047 -0.27579,-0.493515 -0.0944,-0.290303 -0.0944,-0.638667 0,-0.435454 0.1379,-0.870909 0.14515,-0.435454 0.42094,-0.783818 0.27578,-0.348364 0.67495,-0.566091 0.39917,-0.224985 0.91446,-0.224985 0.37739,0 0.66044,0.116121 0.2903,0.116122 0.47174,0.326591 0.18869,0.21047 0.28304,0.500773 0.0944,0.283045 0.0944,0.631409 0,0.435455 -0.13789,0.870909 -0.1379,0.435455 -0.40643,0.783818 -0.26853,0.348364 -0.67495,0.573349 -0.39917,0.217727 -0.92897,0.217727 z m 0.53706,-3.106242 q -0.2395,0 -0.42094,0.137894 -0.18144,0.137894 -0.30482,0.348363 -0.12338,0.21047 -0.18869,0.464485 -0.0581,0.246758 -0.0581,0.471742 0,0.370137 0.11613,0.573349 0.11612,0.195954 0.42094,0.195954 0.2395,0 0.42093,-0.137894 0.18144,-0.137893 0.30482,-0.348363 0.12338,-0.21047 0.18144,-0.457227 0.0653,-0.254015 0.0653,-0.479 0,-0.370137 -0.11612,-0.566091 -0.11612,-0.203212 -0.42094,-0.203212 z"
             inkscape:connector-curvature="0" />
          <path
             id="path908"
             style="font-style:italic;font-variant:normal;font-weight:bold;font-stretch:normal;font-size:7.25757504px;font-family:Ubuntu;-inkscape-font-specification:'Ubuntu, Bold Italic';font-variant-ligatures:normal;font-variant-caps:normal;font-variant-numeric:normal;font-feature-settings:normal;text-align:start;writing-mode:lr-tb;text-anchor:start;stroke-width:0.18143763"
             d="m 259.35427,67.394127 q 0.12338,-0.03629 0.26853,-0.07983 0.15241,-0.0508 0.33385,-0.08709 0.18869,-0.04355 0.41368,-0.06532 0.23224,-0.02903 0.52254,-0.02903 0.8564,0 1.17573,0.493516 0.31933,0.493515 0.10886,1.349908 l -0.49351,2.061152 h -1.08138 l 0.479,-2.017606 q 0.0435,-0.188697 0.0653,-0.362879 0.029,-0.181439 0,-0.312076 -0.029,-0.137893 -0.1379,-0.217727 -0.1016,-0.08709 -0.31933,-0.08709 -0.21047,0 -0.4282,0.04355 l -0.70398,2.953833 h -1.08138 z"
             inkscape:connector-curvature="0" />
          <path
             id="path910"
             style="font-style:italic;font-variant:normal;font-weight:bold;font-stretch:normal;font-size:7.25757504px;font-family:Ubuntu;-inkscape-font-specification:'Ubuntu, Bold Italic';font-variant-ligatures:normal;font-variant-caps:normal;font-variant-numeric:normal;font-feature-settings:normal;text-align:start;writing-mode:lr-tb;text-anchor:start;stroke-width:0.18143763"
             d="m 263.82789,70.268127 q 0.37013,0 0.50803,-0.101606 0.13789,-0.108864 0.13789,-0.232243 0,-0.07983 -0.029,-0.137894 -0.0218,-0.05806 -0.0798,-0.108863 -0.0581,-0.0508 -0.15967,-0.101606 -0.1016,-0.05806 -0.26127,-0.130637 -0.18144,-0.07983 -0.34111,-0.166924 -0.15966,-0.09435 -0.28304,-0.217727 -0.11612,-0.130636 -0.1887,-0.290303 -0.0653,-0.166924 -0.0653,-0.391909 0,-0.587864 0.4282,-0.92897 0.43545,-0.341106 1.26282,-0.341106 0.39191,0 0.69672,0.08709 0.30482,0.08709 0.49352,0.188697 l -0.37014,0.805591 q -0.15241,-0.07983 -0.39191,-0.152409 -0.2395,-0.07258 -0.47174,-0.07258 -0.1016,0 -0.20321,0.01452 -0.0944,0.0073 -0.18144,0.04355 -0.0798,0.03629 -0.13064,0.101606 -0.0508,0.06532 -0.0508,0.174182 0,0.145151 0.10886,0.217727 0.11613,0.07258 0.31934,0.174182 0.28304,0.137894 0.47174,0.254015 0.1887,0.116121 0.29756,0.246757 0.11612,0.130637 0.16692,0.297561 0.0508,0.166924 0.0508,0.391909 0,0.232242 -0.10161,0.457227 -0.0944,0.224985 -0.30482,0.399167 -0.21047,0.174182 -0.53706,0.283045 -0.32659,0.108864 -0.78382,0.108864 -0.28304,0 -0.51528,-0.03629 -0.22499,-0.03629 -0.39917,-0.08709 -0.17418,-0.05806 -0.29756,-0.116121 -0.11612,-0.05806 -0.18144,-0.09435 l 0.37014,-0.827363 q 0.12338,0.07258 0.38465,0.181439 0.26127,0.108864 0.63141,0.108864 z"
             inkscape:connector-curvature="0" />
          <path
             id="path912"
             style="font-style:italic;font-variant:normal;font-weight:bold;font-stretch:normal;font-size:7.25757504px;font-family:Ubuntu;-inkscape-font-specification:'Ubuntu, Bold Italic';font-variant-ligatures:normal;font-variant-caps:normal;font-variant-numeric:normal;font-feature-settings:normal;text-align:start;writing-mode:lr-tb;text-anchor:start;stroke-width:0.18143763"
             d="m 267.42832,69.934278 q -0.0218,0.631409 -0.31933,1.1975 -0.29031,0.566091 -0.71125,1.088637 l -0.79107,-0.21047 q 0.27579,-0.479 0.46448,-0.994288 0.1887,-0.515288 0.22499,-1.081379 z"
             inkscape:connector-curvature="0" />
          <path
             id="path914"
             style="font-style:italic;font-variant:normal;font-weight:bold;font-stretch:normal;font-size:7.25757504px;font-family:Ubuntu;-inkscape-font-specification:'Ubuntu, Bold Italic';font-variant-ligatures:normal;font-variant-caps:normal;font-variant-numeric:normal;font-feature-settings:normal;text-align:start;writing-mode:lr-tb;text-anchor:start;stroke-width:0.18143763"
             d="m 271.20362,70.195551 q 0.16693,0 0.33385,-0.02177 0.16693,-0.02903 0.29756,-0.09435 0.13064,-0.06532 0.21047,-0.181439 0.0871,-0.123379 0.0871,-0.312076 0,-0.145152 -0.0798,-0.246758 -0.0798,-0.108863 -0.20321,-0.195954 -0.12338,-0.08709 -0.27579,-0.159667 -0.15241,-0.07258 -0.30482,-0.159667 -0.19595,-0.116121 -0.37014,-0.246757 -0.17418,-0.130636 -0.29756,-0.290303 -0.12337,-0.166924 -0.19595,-0.362879 -0.0726,-0.203212 -0.0726,-0.464485 0,-0.333848 0.12338,-0.616894 0.13064,-0.290303 0.3774,-0.500772 0.25401,-0.21047 0.63141,-0.326591 0.37739,-0.123379 0.88542,-0.123379 0.23224,0 0.44997,0.04355 0.21773,0.03629 0.40642,0.09435 0.1887,0.05806 0.34111,0.137894 0.15967,0.07258 0.26853,0.145151 l -0.47174,0.834622 q -0.18144,-0.137894 -0.44271,-0.232243 -0.26128,-0.09435 -0.5661,-0.09435 -0.16692,0 -0.31933,0.02903 -0.15241,0.02903 -0.26853,0.101606 -0.11612,0.06532 -0.1887,0.174182 -0.0653,0.108863 -0.0653,0.26853 0,0.145152 0.0508,0.246758 0.0581,0.09435 0.14515,0.166924 0.0871,0.07258 0.20321,0.130636 0.11612,0.05806 0.24676,0.123379 0.22498,0.116121 0.43545,0.246758 0.21047,0.130636 0.37014,0.304818 0.15967,0.166924 0.25402,0.384651 0.0943,0.217727 0.0943,0.515288 0,0.413682 -0.1524,0.7185 -0.15241,0.304818 -0.4282,0.50803 -0.27579,0.203212 -0.66044,0.297561 -0.37739,0.101606 -0.84188,0.101606 -0.30482,0 -0.57335,-0.0508 -0.26127,-0.0508 -0.479,-0.116121 -0.21047,-0.07258 -0.37013,-0.152409 -0.15241,-0.07983 -0.24676,-0.145152 l 0.479,-0.863651 q 0.0871,0.05806 0.21047,0.123378 0.12338,0.06532 0.27579,0.123379 0.15966,0.05806 0.33384,0.101606 0.17419,0.03629 0.36288,0.03629 z"
             inkscape:connector-curvature="0" />
          <path
             id="path916"
             style="font-style:italic;font-variant:normal;font-weight:bold;font-stretch:normal;font-size:7.25757504px;font-family:Ubuntu;-inkscape-font-specification:'Ubuntu, Bold Italic';font-variant-ligatures:normal;font-variant-caps:normal;font-variant-numeric:normal;font-feature-settings:normal;text-align:start;writing-mode:lr-tb;text-anchor:start;stroke-width:0.18143763"
             d="m 274.03113,69.542369 q 0,-0.464484 0.15967,-0.899939 0.16692,-0.435454 0.46448,-0.769303 0.29756,-0.341106 0.7185,-0.544318 0.4282,-0.21047 0.94349,-0.21047 0.25401,0 0.47174,0.07258 0.21773,0.07258 0.37739,0.21047 0.16693,0.137894 0.25402,0.341106 0.0944,0.195954 0.0944,0.449969 0,0.406425 -0.18144,0.68947 -0.18144,0.283045 -0.50803,0.464485 -0.31934,0.174182 -0.76205,0.254015 -0.44271,0.07983 -0.96525,0.07983 0.0508,0.304818 0.21772,0.435455 0.17418,0.123379 0.54432,0.123379 0.23224,0 0.47174,-0.03629 0.2395,-0.04355 0.44997,-0.123379 l 0.0798,0.849136 q -0.20322,0.07983 -0.52255,0.145152 -0.31208,0.06532 -0.68221,0.06532 -0.44997,0 -0.76205,-0.123379 -0.30482,-0.130636 -0.50077,-0.348364 -0.1887,-0.217727 -0.27579,-0.50803 -0.0871,-0.290303 -0.0871,-0.616895 z m 2.11196,-1.567636 q -0.37014,0 -0.65319,0.26853 -0.27578,0.261273 -0.36287,0.696728 0.44997,-0.01452 0.72575,-0.07258 0.27579,-0.06532 0.4282,-0.152409 0.15241,-0.08709 0.20321,-0.188697 0.0508,-0.101606 0.0508,-0.203212 0,-0.348364 -0.39191,-0.348364 z"
             inkscape:connector-curvature="0" />
          <path
             id="path918"
             style="font-style:italic;font-variant:normal;font-weight:bold;font-stretch:normal;font-size:7.25757504px;font-family:Ubuntu;-inkscape-font-specification:'Ubuntu, Bold Italic';font-variant-ligatures:normal;font-variant-caps:normal;font-variant-numeric:normal;font-feature-settings:normal;text-align:start;writing-mode:lr-tb;text-anchor:start;stroke-width:0.18143763"
             d="m 277.87254,69.542369 q 0,-0.464484 0.15967,-0.899939 0.16692,-0.435454 0.46448,-0.769303 0.29756,-0.341106 0.7185,-0.544318 0.4282,-0.21047 0.94349,-0.21047 0.25401,0 0.47174,0.07258 0.21773,0.07258 0.37739,0.21047 0.16693,0.137894 0.25402,0.341106 0.0944,0.195954 0.0944,0.449969 0,0.406425 -0.18144,0.68947 -0.18144,0.283045 -0.50803,0.464485 -0.31934,0.174182 -0.76205,0.254015 -0.44271,0.07983 -0.96526,0.07983 0.0508,0.304818 0.21773,0.435455 0.17418,0.123379 0.54432,0.123379 0.23224,0 0.47174,-0.03629 0.2395,-0.04355 0.44997,-0.123379 l 0.0798,0.849136 q -0.20321,0.07983 -0.52254,0.145152 -0.31208,0.06532 -0.68221,0.06532 -0.44997,0 -0.76205,-0.123379 -0.30482,-0.130636 -0.50077,-0.348364 -0.1887,-0.217727 -0.27579,-0.50803 -0.0871,-0.290303 -0.0871,-0.616894 z m 2.11195,-1.567636 q -0.37013,0 -0.65318,0.26853 -0.27579,0.261273 -0.36288,0.696728 0.44997,-0.01452 0.72576,-0.07258 0.27579,-0.06532 0.4282,-0.152409 0.15241,-0.08709 0.20321,-0.188697 0.0508,-0.101606 0.0508,-0.203212 0,-0.348364 -0.39191,-0.348364 z"
             inkscape:connector-curvature="0" />
          <path
             id="path920"
             style="font-style:italic;font-variant:normal;font-weight:bold;font-stretch:normal;font-size:7.25757504px;font-family:Ubuntu;-inkscape-font-specification:'Ubuntu, Bold Italic';font-variant-ligatures:normal;font-variant-caps:normal;font-variant-numeric:normal;font-feature-settings:normal;text-align:start;writing-mode:lr-tb;text-anchor:start;stroke-width:0.18143763"
             d="m 283.07112,71.139036 q -0.36288,0 -0.62415,-0.123379 -0.25402,-0.123379 -0.42094,-0.333848 -0.15967,-0.217728 -0.2395,-0.500773 -0.0726,-0.290303 -0.0726,-0.616894 0,-0.493515 0.17419,-0.92897 0.18144,-0.442712 0.49351,-0.769302 0.31208,-0.326591 0.74027,-0.515288 0.4282,-0.188697 0.93623,-0.188697 0.13064,0 0.2395,0.01452 0.11612,0.01452 0.23224,0.04354 l 0.39191,-1.640212 1.12493,-0.174181 -0.958,3.984408 q -0.10161,0.413682 -0.0581,0.834621 0.0435,0.413682 0.16692,0.740273 l -0.96526,0.137894 q -0.0435,-0.08709 -0.0798,-0.166924 -0.0363,-0.07983 -0.0726,-0.18144 -0.20321,0.166925 -0.45722,0.275788 -0.24676,0.108864 -0.55158,0.108864 z m 1.2483,-3.055439 q -0.0435,-0.0073 -0.0798,-0.01452 -0.029,-0.0073 -0.0653,-0.0073 -0.029,-0.0073 -0.0798,-0.0073 -0.0508,0 -0.13064,0 -0.25401,0 -0.47174,0.123379 -0.21773,0.116121 -0.37739,0.319334 -0.15241,0.203212 -0.2395,0.464484 -0.0871,0.254015 -0.0871,0.522546 0,0.348363 0.11612,0.551575 0.12338,0.195955 0.43545,0.195955 0.16693,0 0.30482,-0.06532 0.13789,-0.06532 0.2903,-0.217727 0.0145,-0.18144 0.0435,-0.377394 0.0363,-0.203212 0.0726,-0.370137 z"
             inkscape:connector-curvature="0" />
          <path
             id="path922"
             style="font-style:italic;font-variant:normal;font-weight:bold;font-stretch:normal;font-size:7.25757504px;font-family:Ubuntu;-inkscape-font-specification:'Ubuntu, Bold Italic';font-variant-ligatures:normal;font-variant-caps:normal;font-variant-numeric:normal;font-feature-settings:normal;text-align:start;writing-mode:lr-tb;text-anchor:start;stroke-width:0.18143763"
             d="m 285.99479,69.542369 q 0,-0.464484 0.15966,-0.899939 0.16693,-0.435454 0.46449,-0.769303 0.29756,-0.341106 0.7185,-0.544318 0.42819,-0.21047 0.94348,-0.21047 0.25402,0 0.47174,0.07258 0.21773,0.07258 0.3774,0.21047 0.16692,0.137894 0.25401,0.341106 0.0944,0.195954 0.0944,0.449969 0,0.406425 -0.18144,0.68947 -0.18144,0.283045 -0.50803,0.464485 -0.31933,0.174182 -0.76204,0.254015 -0.44272,0.07983 -0.96526,0.07983 0.0508,0.304818 0.21773,0.435455 0.17418,0.123379 0.54431,0.123379 0.23225,0 0.47175,-0.03629 0.2395,-0.04355 0.44997,-0.123379 l 0.0798,0.849136 q -0.20321,0.07983 -0.52255,0.145152 -0.31207,0.06532 -0.68221,0.06532 -0.44997,0 -0.76204,-0.123379 -0.30482,-0.130636 -0.50078,-0.348364 -0.18869,-0.217727 -0.27578,-0.50803 -0.0871,-0.290303 -0.0871,-0.616894 z m 2.11195,-1.567636 q -0.37014,0 -0.65318,0.26853 -0.27579,0.261273 -0.36288,0.696728 0.44997,-0.01452 0.72576,-0.07258 0.27578,-0.06532 0.42819,-0.152409 0.15241,-0.08709 0.20322,-0.188697 0.0508,-0.101606 0.0508,-0.203212 0,-0.348364 -0.39191,-0.348364 z"
             inkscape:connector-curvature="0" />
          <path
             id="path924"
             style="font-style:italic;font-variant:normal;font-weight:bold;font-stretch:normal;font-size:7.25757504px;font-family:Ubuntu;-inkscape-font-specification:'Ubuntu, Bold Italic';font-variant-ligatures:normal;font-variant-caps:normal;font-variant-numeric:normal;font-feature-settings:normal;text-align:start;writing-mode:lr-tb;text-anchor:start;stroke-width:0.18143763"
             d="m 292.53602,68.148915 q -0.14515,-0.03629 -0.2903,-0.06532 -0.1379,-0.03629 -0.41369,-0.03629 -0.1016,0 -0.22498,0.02177 -0.12338,0.01452 -0.20321,0.03629 l -0.70399,2.932061 h -1.08138 l 0.87091,-3.614273 q 0.31208,-0.101606 0.69673,-0.188697 0.39191,-0.09435 0.87817,-0.09435 0.18144,0 0.39916,0.03629 0.22499,0.02903 0.39191,0.101606 z"
             inkscape:connector-curvature="0" />
          <path
             id="path926"
             style="font-style:italic;font-variant:normal;font-weight:bold;font-stretch:normal;font-size:7.25757504px;font-family:Ubuntu;-inkscape-font-specification:'Ubuntu, Bold Italic';font-variant-ligatures:normal;font-variant-caps:normal;font-variant-numeric:normal;font-feature-settings:normal;text-align:start;writing-mode:lr-tb;text-anchor:start;stroke-width:0.18143763"
             d="m 293.94966,70.268127 q 0.37014,0 0.50803,-0.101606 0.13789,-0.108864 0.13789,-0.232243 0,-0.07983 -0.029,-0.137894 -0.0218,-0.05806 -0.0798,-0.108863 -0.0581,-0.0508 -0.15967,-0.101606 -0.1016,-0.05806 -0.26127,-0.130637 -0.18144,-0.07983 -0.3411,-0.166924 -0.15967,-0.09435 -0.28305,-0.217727 -0.11612,-0.130636 -0.1887,-0.290303 -0.0653,-0.166924 -0.0653,-0.391909 0,-0.587864 0.4282,-0.92897 0.43546,-0.341106 1.26282,-0.341106 0.39191,0 0.69673,0.08709 0.30481,0.08709 0.49351,0.188697 l -0.37013,0.805591 q -0.15241,-0.07983 -0.39191,-0.152409 -0.2395,-0.07258 -0.47175,-0.07258 -0.1016,0 -0.20321,0.01452 -0.0944,0.0073 -0.18144,0.04355 -0.0798,0.03629 -0.13063,0.101606 -0.0508,0.06532 -0.0508,0.174182 0,0.145151 0.10887,0.217727 0.11612,0.07258 0.31933,0.174182 0.28305,0.137894 0.47174,0.254015 0.1887,0.116121 0.29756,0.246757 0.11612,0.130637 0.16693,0.297561 0.0508,0.166924 0.0508,0.391909 0,0.232242 -0.10161,0.457227 -0.0943,0.224985 -0.30481,0.399167 -0.21047,0.174182 -0.53706,0.283045 -0.3266,0.108864 -0.78382,0.108864 -0.28305,0 -0.51529,-0.03629 -0.22499,-0.03629 -0.39917,-0.08709 -0.17418,-0.05806 -0.29756,-0.116121 -0.11612,-0.05806 -0.18144,-0.09435 l 0.37014,-0.827363 q 0.12338,0.07258 0.38465,0.181439 0.26127,0.108864 0.63141,0.108864 z"
             inkscape:connector-curvature="0" />
          <path
             id="path928"
             style="font-style:italic;font-variant:normal;font-weight:bold;font-stretch:normal;font-size:7.25757504px;font-family:Ubuntu;-inkscape-font-specification:'Ubuntu, Bold Italic';font-variant-ligatures:normal;font-variant-caps:normal;font-variant-numeric:normal;font-feature-settings:normal;text-align:start;writing-mode:lr-tb;text-anchor:start;stroke-width:0.18143763"
             d="m 300.92169,65.405552 q 0.32659,0 0.56609,0.07258 0.24676,0.06532 0.37014,0.123379 l -0.36288,0.849136 q -0.13064,-0.06532 -0.30482,-0.09435 -0.16692,-0.03629 -0.31207,-0.03629 -0.39917,0 -0.59513,0.203212 -0.18869,0.203212 -0.26127,0.50803 l -0.0435,0.188697 h 1.27733 l -0.21773,0.885424 h -1.27007 l -0.44272,1.850682 q -0.24675,1.037833 -0.53706,1.611182 -0.2903,0.580606 -0.63866,0.841878 l -0.96526,-0.137893 q 0.1887,-0.174182 0.34836,-0.428197 0.15967,-0.254015 0.28305,-0.537061 0.13064,-0.283045 0.21773,-0.573348 0.0943,-0.297561 0.15241,-0.551576 l 0.75478,-3.164303 q 0.18144,-0.769303 0.65318,-1.190242 0.47175,-0.420939 1.32814,-0.420939 z"
             inkscape:connector-curvature="0" />
          <path
             id="path930"
             style="font-style:italic;font-variant:normal;font-weight:bold;font-stretch:normal;font-size:7.25757504px;font-family:Ubuntu;-inkscape-font-specification:'Ubuntu, Bold Italic';font-variant-ligatures:normal;font-variant-caps:normal;font-variant-numeric:normal;font-feature-settings:normal;text-align:start;writing-mode:lr-tb;text-anchor:start;stroke-width:0.18143763"
             d="m 302.85583,71.139036 q -0.38465,0 -0.6677,-0.116121 -0.28304,-0.116122 -0.47174,-0.326591 -0.18144,-0.21047 -0.27579,-0.493515 -0.0943,-0.290303 -0.0943,-0.638667 0,-0.435454 0.13789,-0.870909 0.14515,-0.435454 0.42094,-0.783818 0.27579,-0.348364 0.67495,-0.566091 0.39917,-0.224985 0.91446,-0.224985 0.37739,0 0.66044,0.116121 0.2903,0.116122 0.47174,0.326591 0.1887,0.21047 0.28305,0.500773 0.0943,0.283045 0.0943,0.631409 0,0.435455 -0.13789,0.870909 -0.13789,0.435455 -0.40642,0.783818 -0.26853,0.348364 -0.67496,0.573349 -0.39917,0.217727 -0.92897,0.217727 z m 0.53706,-3.106242 q -0.2395,0 -0.42094,0.137894 -0.18144,0.137894 -0.30482,0.348363 -0.12337,0.21047 -0.18869,0.464485 -0.0581,0.246758 -0.0581,0.471742 0,0.370137 0.11612,0.573349 0.11612,0.195954 0.42094,0.195954 0.2395,0 0.42094,-0.137894 0.18144,-0.137893 0.30482,-0.348363 0.12337,-0.21047 0.18143,-0.457227 0.0653,-0.254015 0.0653,-0.479 0,-0.370137 -0.11612,-0.566091 -0.11612,-0.203212 -0.42094,-0.203212 z"
             inkscape:connector-curvature="0" />
          <path
             id="path932"
             style="font-style:italic;font-variant:normal;font-weight:bold;font-stretch:normal;font-size:7.25757504px;font-family:Ubuntu;-inkscape-font-specification:'Ubuntu, Bold Italic';font-variant-ligatures:normal;font-variant-caps:normal;font-variant-numeric:normal;font-feature-settings:normal;text-align:start;writing-mode:lr-tb;text-anchor:start;stroke-width:0.18143763"
             d="m 308.21351,68.148915 q -0.14515,-0.03629 -0.2903,-0.06532 -0.1379,-0.03629 -0.41369,-0.03629 -0.1016,0 -0.22498,0.02177 -0.12338,0.01452 -0.20321,0.03629 l -0.70399,2.932061 h -1.08138 l 0.87091,-3.614273 q 0.31208,-0.101606 0.69673,-0.188697 0.39191,-0.09435 0.87817,-0.09435 0.18144,0 0.39916,0.03629 0.22499,0.02903 0.39191,0.101606 z"
             inkscape:connector-curvature="0" />
          <path
             id="path934"
             style="font-style:italic;font-variant:normal;font-weight:bold;font-stretch:normal;font-size:7.25757504px;font-family:Ubuntu;-inkscape-font-specification:'Ubuntu, Bold Italic';font-variant-ligatures:normal;font-variant-caps:normal;font-variant-numeric:normal;font-feature-settings:normal;text-align:start;writing-mode:lr-tb;text-anchor:start;stroke-width:0.18143763"
             d="m 312.64075,66.00793 q 0.0435,0.195955 0.10886,0.558834 0.0726,0.355621 0.14515,0.791075 0.0798,0.428197 0.15967,0.885424 0.0798,0.44997 0.14515,0.827364 0.24676,-0.377394 0.53706,-0.812848 0.29031,-0.435455 0.57335,-0.856394 0.28305,-0.42094 0.53706,-0.783818 0.25402,-0.370137 0.43546,-0.609637 h 1.00154 q -0.0508,0.500773 -0.13789,1.124924 -0.0798,0.624152 -0.1887,1.291849 -0.10161,0.667697 -0.21773,1.342651 -0.11612,0.674955 -0.23224,1.270076 h -1.10315 q 0.15241,-0.740273 0.31933,-1.596667 0.17418,-0.863651 0.31934,-1.741818 -0.1887,0.297561 -0.42094,0.667697 -0.23225,0.362879 -0.46449,0.740273 -0.23224,0.370136 -0.44997,0.711242 -0.21773,0.341106 -0.37739,0.580606 h -0.82737 q -0.0363,-0.217727 -0.0871,-0.551575 -0.0508,-0.333849 -0.11612,-0.703985 -0.0581,-0.377394 -0.12338,-0.754788 -0.0653,-0.384652 -0.12338,-0.68947 -0.28304,0.878167 -0.51528,1.741818 -0.22499,0.856394 -0.42094,1.596667 h -1.0959 q 0.16693,-0.595121 0.36288,-1.270076 0.20321,-0.674954 0.41368,-1.342651 0.21773,-0.674955 0.4282,-1.299106 0.21047,-0.624152 0.39917,-1.117667 z"
             inkscape:connector-curvature="0" />
          <path
             id="path936"
             style="font-style:italic;font-variant:normal;font-weight:bold;font-stretch:normal;font-size:7.25757504px;font-family:Ubuntu;-inkscape-font-specification:'Ubuntu, Bold Italic';font-variant-ligatures:normal;font-variant-caps:normal;font-variant-numeric:normal;font-feature-settings:normal;text-align:start;writing-mode:lr-tb;text-anchor:start;stroke-width:0.18143763"
             d="m 318.23565,71.139036 q -0.38465,0 -0.66769,-0.116121 -0.28305,-0.116122 -0.47175,-0.326591 -0.18144,-0.21047 -0.27578,-0.493515 -0.0943,-0.290303 -0.0943,-0.638667 0,-0.435454 0.13789,-0.870909 0.14515,-0.435454 0.42094,-0.783818 0.27579,-0.348364 0.67496,-0.566091 0.39916,-0.224985 0.91445,-0.224985 0.37739,0 0.66044,0.116121 0.2903,0.116122 0.47174,0.326591 0.1887,0.21047 0.28305,0.500773 0.0943,0.283045 0.0943,0.631409 0,0.435455 -0.1379,0.870909 -0.13789,0.435455 -0.40642,0.783818 -0.26853,0.348364 -0.67496,0.573349 -0.39916,0.217727 -0.92897,0.217727 z m 0.53706,-3.106242 q -0.2395,0 -0.42094,0.137894 -0.18143,0.137894 -0.30481,0.348363 -0.12338,0.21047 -0.1887,0.464485 -0.0581,0.246758 -0.0581,0.471742 0,0.370137 0.11612,0.573349 0.11612,0.195954 0.42094,0.195954 0.2395,0 0.42094,-0.137894 0.18144,-0.137893 0.30482,-0.348363 0.12338,-0.21047 0.18144,-0.457227 0.0653,-0.254015 0.0653,-0.479 0,-0.370137 -0.11612,-0.566091 -0.11612,-0.203212 -0.42094,-0.203212 z"
             inkscape:connector-curvature="0" />
          <path
             id="path938"
             style="font-style:italic;font-variant:normal;font-weight:bold;font-stretch:normal;font-size:7.25757504px;font-family:Ubuntu;-inkscape-font-specification:'Ubuntu, Bold Italic';font-variant-ligatures:normal;font-variant-caps:normal;font-variant-numeric:normal;font-feature-settings:normal;text-align:start;writing-mode:lr-tb;text-anchor:start;stroke-width:0.18143763"
             d="m 321.55395,67.394127 q 0.12338,-0.03629 0.26853,-0.07983 0.15241,-0.0508 0.33385,-0.08709 0.1887,-0.04355 0.41368,-0.06532 0.23224,-0.02903 0.52255,-0.02903 0.85639,0 1.17573,0.493516 0.31933,0.493515 0.10886,1.349908 l -0.49352,2.061152 h -1.08138 l 0.479,-2.017606 q 0.0435,-0.188697 0.0653,-0.362879 0.029,-0.181439 0,-0.312076 -0.029,-0.137893 -0.13789,-0.217727 -0.10161,-0.08709 -0.31933,-0.08709 -0.21047,0 -0.4282,0.04355 l -0.70399,2.953833 h -1.08137 z"
             inkscape:connector-curvature="0" />
          <path
             id="path940"
             style="font-style:italic;font-variant:normal;font-weight:bold;font-stretch:normal;font-size:7.25757504px;font-family:Ubuntu;-inkscape-font-specification:'Ubuntu, Bold Italic';font-variant-ligatures:normal;font-variant-caps:normal;font-variant-numeric:normal;font-feature-settings:normal;text-align:start;writing-mode:lr-tb;text-anchor:start;stroke-width:0.18143763"
             d="m 328.08146,70.55843 q -0.10887,0.471742 -0.29031,0.812848 -0.17418,0.348364 -0.44271,0.573349 -0.26127,0.232242 -0.63141,0.341106 -0.37013,0.116121 -0.86365,0.116121 -0.45723,0 -0.7693,-0.08709 -0.31208,-0.07983 -0.56609,-0.203212 l 0.36288,-0.856394 q 0.22498,0.101606 0.46448,0.174182 0.24676,0.07258 0.60238,0.07258 0.46449,0 0.69673,-0.21047 0.2395,-0.203212 0.31207,-0.529803 l 0.029,-0.137894 q -0.14515,0.07258 -0.31207,0.116121 -0.15967,0.04355 -0.34111,0.04355 -0.3411,0 -0.58786,-0.101606 -0.24676,-0.108864 -0.40643,-0.297561 -0.1524,-0.188697 -0.23224,-0.442712 -0.0726,-0.261273 -0.0726,-0.566091 0,-0.551576 0.20321,-0.972515 0.20321,-0.428197 0.53706,-0.711242 0.3411,-0.283046 0.77656,-0.428197 0.44271,-0.145152 0.92171,-0.145152 0.34836,0 0.68947,0.07258 0.34111,0.07258 0.6677,0.224985 z m -0.479,-2.503864 q -0.12338,-0.02903 -0.30482,-0.02903 -0.27579,0 -0.49352,0.101606 -0.21772,0.09435 -0.37739,0.261273 -0.15241,0.166924 -0.2395,0.406424 -0.0798,0.232243 -0.0798,0.500773 0,0.130636 0.0218,0.246757 0.0218,0.108864 0.0798,0.195955 0.0581,0.07983 0.15967,0.130636 0.10161,0.0508 0.25401,0.0508 0.10161,0 0.26854,-0.03629 0.17418,-0.03629 0.31207,-0.166924 z"
             inkscape:connector-curvature="0" />
          <path
             id="path942"
             style="font-style:italic;font-variant:normal;font-weight:bold;font-stretch:normal;font-size:7.25757504px;font-family:Ubuntu;-inkscape-font-specification:'Ubuntu, Bold Italic';font-variant-ligatures:normal;font-variant-caps:normal;font-variant-numeric:normal;font-feature-settings:normal;text-align:start;writing-mode:lr-tb;text-anchor:start;stroke-width:0.18143763"
             d="m 330.62457,71.139036 q -0.38465,0 -0.6677,-0.116121 -0.28304,-0.116122 -0.47174,-0.326591 -0.18144,-0.21047 -0.27579,-0.493515 -0.0944,-0.290303 -0.0944,-0.638667 0,-0.435454 0.1379,-0.870909 0.14515,-0.435454 0.42094,-0.783818 0.27579,-0.348364 0.67495,-0.566091 0.39917,-0.224985 0.91446,-0.224985 0.37739,0 0.66044,0.116121 0.2903,0.116122 0.47174,0.326591 0.18869,0.21047 0.28304,0.500773 0.0944,0.283045 0.0944,0.631409 0,0.435455 -0.13789,0.870909 -0.1379,0.435455 -0.40643,0.783818 -0.26853,0.348364 -0.67495,0.573349 -0.39917,0.217727 -0.92897,0.217727 z m 0.53706,-3.106242 q -0.2395,0 -0.42094,0.137894 -0.18144,0.137894 -0.30482,0.348363 -0.12338,0.21047 -0.18869,0.464485 -0.0581,0.246758 -0.0581,0.471742 0,0.370137 0.11612,0.573349 0.11612,0.195954 0.42094,0.195954 0.2395,0 0.42093,-0.137894 0.18144,-0.137893 0.30482,-0.348363 0.12338,-0.21047 0.18144,-0.457227 0.0653,-0.254015 0.0653,-0.479 0,-0.370137 -0.11612,-0.566091 -0.11612,-0.203212 -0.42094,-0.203212 z"
             inkscape:connector-curvature="0" />
          <path
             id="path944"
             style="font-style:italic;font-variant:normal;font-weight:bold;font-stretch:normal;font-size:7.25757504px;font-family:Ubuntu;-inkscape-font-specification:'Ubuntu, Bold Italic';font-variant-ligatures:normal;font-variant-caps:normal;font-variant-numeric:normal;font-feature-settings:normal;text-align:start;writing-mode:lr-tb;text-anchor:start;stroke-width:0.18143763"
             d="m 334.792,71.139036 q -0.38465,0 -0.66769,-0.116121 -0.28305,-0.116122 -0.47175,-0.326591 -0.18143,-0.21047 -0.27578,-0.493515 -0.0944,-0.290303 -0.0944,-0.638667 0,-0.435454 0.13789,-0.870909 0.14515,-0.435454 0.42094,-0.783818 0.27579,-0.348364 0.67496,-0.566091 0.39916,-0.224985 0.91445,-0.224985 0.37739,0 0.66044,0.116121 0.2903,0.116122 0.47174,0.326591 0.1887,0.21047 0.28305,0.500773 0.0944,0.283045 0.0944,0.631409 0,0.435455 -0.1379,0.870909 -0.13789,0.435455 -0.40642,0.783818 -0.26853,0.348364 -0.67496,0.573349 -0.39916,0.217727 -0.92897,0.217727 z m 0.53706,-3.106242 q -0.2395,0 -0.42093,0.137894 -0.18144,0.137894 -0.30482,0.348363 -0.12338,0.21047 -0.1887,0.464485 -0.0581,0.246758 -0.0581,0.471742 0,0.370137 0.11612,0.573349 0.11612,0.195954 0.42094,0.195954 0.2395,0 0.42094,-0.137894 0.18144,-0.137893 0.30482,-0.348363 0.12338,-0.21047 0.18144,-0.457227 0.0653,-0.254015 0.0653,-0.479 0,-0.370137 -0.11613,-0.566091 -0.11612,-0.203212 -0.42094,-0.203212 z"
             inkscape:connector-curvature="0" />
          <path
             id="path946"
             style="font-style:italic;font-variant:normal;font-weight:bold;font-stretch:normal;font-size:7.25757504px;font-family:Ubuntu;-inkscape-font-specification:'Ubuntu, Bold Italic';font-variant-ligatures:normal;font-variant-caps:normal;font-variant-numeric:normal;font-feature-settings:normal;text-align:start;writing-mode:lr-tb;text-anchor:start;stroke-width:0.18143763"
             d="m 338.47318,70.268127 q 0.37014,0 0.50803,-0.101606 0.1379,-0.108864 0.1379,-0.232243 0,-0.07983 -0.029,-0.137894 -0.0218,-0.05806 -0.0798,-0.108863 -0.0581,-0.0508 -0.15966,-0.101606 -0.10161,-0.05806 -0.26128,-0.130637 -0.18144,-0.07983 -0.3411,-0.166924 -0.15967,-0.09435 -0.28305,-0.217727 -0.11612,-0.130636 -0.1887,-0.290303 -0.0653,-0.166924 -0.0653,-0.391909 0,-0.587864 0.42819,-0.92897 0.43546,-0.341106 1.26282,-0.341106 0.39191,0 0.69673,0.08709 0.30482,0.08709 0.49351,0.188697 l -0.37013,0.805591 q -0.15241,-0.07983 -0.39191,-0.152409 -0.2395,-0.07258 -0.47174,-0.07258 -0.10161,0 -0.20322,0.01452 -0.0944,0.0073 -0.18144,0.04355 -0.0798,0.03629 -0.13063,0.101606 -0.0508,0.06532 -0.0508,0.174182 0,0.145151 0.10887,0.217727 0.11612,0.07258 0.31933,0.174182 0.28305,0.137894 0.47174,0.254015 0.1887,0.116121 0.29756,0.246757 0.11613,0.130637 0.16693,0.297561 0.0508,0.166924 0.0508,0.391909 0,0.232242 -0.1016,0.457227 -0.0943,0.224985 -0.30482,0.399167 -0.21047,0.174182 -0.53706,0.283045 -0.32659,0.108864 -0.78382,0.108864 -0.28305,0 -0.51529,-0.03629 -0.22498,-0.03629 -0.39917,-0.08709 -0.17418,-0.05806 -0.29756,-0.116121 -0.11612,-0.05806 -0.18144,-0.09435 l 0.37014,-0.827363 q 0.12338,0.07258 0.38465,0.181439 0.26128,0.108864 0.63141,0.108864 z"
             inkscape:connector-curvature="0" />
          <path
             id="path948"
             style="font-style:italic;font-variant:normal;font-weight:bold;font-stretch:normal;font-size:7.25757504px;font-family:Ubuntu;-inkscape-font-specification:'Ubuntu, Bold Italic';font-variant-ligatures:normal;font-variant-caps:normal;font-variant-numeric:normal;font-feature-settings:normal;text-align:start;writing-mode:lr-tb;text-anchor:start;stroke-width:0.18143763"
             d="m 340.95107,69.542369 q 0,-0.464484 0.15967,-0.899939 0.16692,-0.435454 0.46448,-0.769303 0.29756,-0.341106 0.7185,-0.544318 0.4282,-0.21047 0.94348,-0.21047 0.25402,0 0.47175,0.07258 0.21772,0.07258 0.37739,0.21047 0.16693,0.137894 0.25402,0.341106 0.0943,0.195954 0.0943,0.449969 0,0.406425 -0.18143,0.68947 -0.18144,0.283045 -0.50803,0.464485 -0.31934,0.174182 -0.76205,0.254015 -0.44271,0.07983 -0.96526,0.07983 0.0508,0.304818 0.21773,0.435455 0.17418,0.123379 0.54432,0.123379 0.23224,0 0.47174,-0.03629 0.2395,-0.04355 0.44997,-0.123379 l 0.0798,0.849136 q -0.20321,0.07983 -0.52254,0.145152 -0.31208,0.06532 -0.68221,0.06532 -0.44997,0 -0.76205,-0.123379 -0.30482,-0.130636 -0.50077,-0.348364 -0.1887,-0.217727 -0.27579,-0.50803 -0.0871,-0.290303 -0.0871,-0.616894 z m 2.11195,-1.567636 q -0.37013,0 -0.65318,0.26853 -0.27579,0.261273 -0.36288,0.696728 0.44997,-0.01452 0.72576,-0.07258 0.27579,-0.06532 0.4282,-0.152409 0.15241,-0.08709 0.20321,-0.188697 0.0508,-0.101606 0.0508,-0.203212 0,-0.348364 -0.39191,-0.348364 z"
             inkscape:connector-curvature="0" />
          <path
             id="path950"
             style="font-style:italic;font-variant:normal;font-weight:bold;font-stretch:normal;font-size:7.25757504px;font-family:Ubuntu;-inkscape-font-specification:'Ubuntu, Bold Italic';font-variant-ligatures:normal;font-variant-caps:normal;font-variant-numeric:normal;font-feature-settings:normal;text-align:start;writing-mode:lr-tb;text-anchor:start;stroke-width:0.18143763"
             d="m 349.28662,65.405552 q 0.32659,0 0.56609,0.07258 0.24676,0.06532 0.37014,0.123379 l -0.36288,0.849136 q -0.13064,-0.06532 -0.30482,-0.09435 -0.16692,-0.03629 -0.31208,-0.03629 -0.39916,0 -0.59512,0.203212 -0.18869,0.203212 -0.26127,0.50803 l -0.0435,0.188697 h 1.27733 l -0.21773,0.885424 h -1.27007 l -0.44272,1.850682 q -0.24675,1.037833 -0.53706,1.611182 -0.2903,0.580606 -0.63866,0.841878 l -0.96526,-0.137893 q 0.1887,-0.174182 0.34836,-0.428197 0.15967,-0.254015 0.28305,-0.537061 0.13063,-0.283045 0.21773,-0.573348 0.0943,-0.297561 0.1524,-0.551576 l 0.75479,-3.164303 q 0.18144,-0.769303 0.65318,-1.190242 0.47175,-0.420939 1.32814,-0.420939 z"
             inkscape:connector-curvature="0" />
          <path
             id="path952"
             style="font-style:italic;font-variant:normal;font-weight:bold;font-stretch:normal;font-size:7.25757504px;font-family:Ubuntu;-inkscape-font-specification:'Ubuntu, Bold Italic';font-variant-ligatures:normal;font-variant-caps:normal;font-variant-numeric:normal;font-feature-settings:normal;text-align:start;writing-mode:lr-tb;text-anchor:start;stroke-width:0.18143763"
             d="m 352.41102,68.148915 q -0.14515,-0.03629 -0.2903,-0.06532 -0.1379,-0.03629 -0.41369,-0.03629 -0.1016,0 -0.22498,0.02177 -0.12338,0.01452 -0.20321,0.03629 l -0.70399,2.932061 h -1.08138 l 0.87091,-3.614273 q 0.31208,-0.101606 0.69673,-0.188697 0.39191,-0.09435 0.87817,-0.09435 0.18144,0 0.39916,0.03629 0.22499,0.02903 0.39191,0.101606 z"
             inkscape:connector-curvature="0" />
          <path
             id="path954"
             style="font-style:italic;font-variant:normal;font-weight:bold;font-stretch:normal;font-size:7.25757504px;font-family:Ubuntu;-inkscape-font-specification:'Ubuntu, Bold Italic';font-variant-ligatures:normal;font-variant-caps:normal;font-variant-numeric:normal;font-feature-settings:normal;text-align:start;writing-mode:lr-tb;text-anchor:start;stroke-width:0.18143763"
             d="m 354.16916,71.139036 q -0.38466,0 -0.6677,-0.116121 -0.28305,-0.116122 -0.47174,-0.326591 -0.18144,-0.21047 -0.27579,-0.493515 -0.0944,-0.290303 -0.0944,-0.638667 0,-0.435454 0.13789,-0.870909 0.14516,-0.435454 0.42094,-0.783818 0.27579,-0.348364 0.67496,-0.566091 0.39916,-0.224985 0.91445,-0.224985 0.3774,0 0.66044,0.116121 0.2903,0.116122 0.47174,0.326591 0.1887,0.21047 0.28305,0.500773 0.0944,0.283045 0.0944,0.631409 0,0.435455 -0.1379,0.870909 -0.13789,0.435455 -0.40642,0.783818 -0.26853,0.348364 -0.67495,0.573349 -0.39917,0.217727 -0.92897,0.217727 z m 0.53706,-3.106242 q -0.2395,0 -0.42094,0.137894 -0.18144,0.137894 -0.30482,0.348363 -0.12338,0.21047 -0.1887,0.464485 -0.0581,0.246758 -0.0581,0.471742 0,0.370137 0.11612,0.573349 0.11612,0.195954 0.42094,0.195954 0.2395,0 0.42094,-0.137894 0.18144,-0.137893 0.30482,-0.348363 0.12338,-0.21047 0.18144,-0.457227 0.0653,-0.254015 0.0653,-0.479 0,-0.370137 -0.11612,-0.566091 -0.11613,-0.203212 -0.42094,-0.203212 z"
             inkscape:connector-curvature="0" />
          <path
             id="path956"
             style="font-style:italic;font-variant:normal;font-weight:bold;font-stretch:normal;font-size:7.25757504px;font-family:Ubuntu;-inkscape-font-specification:'Ubuntu, Bold Italic';font-variant-ligatures:normal;font-variant-caps:normal;font-variant-numeric:normal;font-feature-settings:normal;text-align:start;writing-mode:lr-tb;text-anchor:start;stroke-width:0.18143763"
             d="m 357.48745,67.394127 q 0.12338,-0.03629 0.26128,-0.07983 0.14515,-0.0508 0.31933,-0.08709 0.18144,-0.04355 0.39917,-0.06532 0.22498,-0.02903 0.51528,-0.02903 0.34837,0 0.57335,0.08709 0.23225,0.08709 0.42094,0.261273 0.26853,-0.152409 0.52981,-0.246758 0.26853,-0.101606 0.62415,-0.101606 0.3411,0 0.5806,0.09435 0.24676,0.08709 0.40643,0.261273 0.15966,0.166924 0.23224,0.406424 0.0726,0.232242 0.0726,0.515288 0,0.130636 -0.0218,0.275787 -0.0145,0.145152 -0.0508,0.290303 l -0.49352,2.061152 h -1.08137 l 0.479,-2.017606 q 0.0218,-0.101606 0.0435,-0.224985 0.029,-0.130636 0.029,-0.254015 0,-0.203212 -0.0943,-0.348364 -0.0944,-0.152409 -0.37013,-0.152409 -0.15241,0 -0.29031,0.05806 -0.13789,0.0508 -0.24675,0.108864 0.0145,0.05806 0.0145,0.108863 0,0.0508 0,0.09435 0,0.130636 -0.0218,0.275787 -0.0145,0.145152 -0.0508,0.290303 l -0.49352,2.061152 h -1.08138 l 0.479,-2.017606 q 0.0218,-0.101606 0.0436,-0.224985 0.029,-0.130636 0.029,-0.254015 0,-0.203212 -0.0943,-0.348364 -0.0944,-0.152409 -0.37014,-0.152409 -0.11612,0 -0.19595,0.01451 -0.0798,0.0073 -0.1887,0.02903 l -0.70398,2.953833 h -1.08138 z"
             inkscape:connector-curvature="0" />
          <path
             id="path958"
             style="font-style:italic;font-variant:normal;font-weight:bold;font-stretch:normal;font-size:7.25757504px;font-family:Ubuntu;-inkscape-font-specification:'Ubuntu, Bold Italic';font-variant-ligatures:normal;font-variant-caps:normal;font-variant-numeric:normal;font-feature-settings:normal;text-align:start;writing-mode:lr-tb;text-anchor:start;stroke-width:0.18143763"
             d="m 365.52839,66.269203 1.12493,-0.174182 -0.27579,1.124924 h 1.20476 l -0.21773,0.885424 h -1.1975 l -0.31933,1.335394 q -0.0436,0.166925 -0.0581,0.312076 -0.007,0.145152 0.0363,0.254015 0.0508,0.101606 0.16693,0.159667 0.11612,0.05806 0.31933,0.05806 0.17418,0 0.33385,-0.02903 0.16692,-0.03629 0.33385,-0.09435 l 0.0798,0.827363 q -0.21773,0.07983 -0.47174,0.137894 -0.25402,0.05806 -0.60238,0.05806 -0.50077,0 -0.77656,-0.145152 -0.27579,-0.152409 -0.39191,-0.406424 -0.11612,-0.261273 -0.10161,-0.595121 0.0145,-0.333849 0.10161,-0.703985 z"
             inkscape:connector-curvature="0" />
          <path
             id="path960"
             style="font-style:italic;font-variant:normal;font-weight:bold;font-stretch:normal;font-size:7.25757504px;font-family:Ubuntu;-inkscape-font-specification:'Ubuntu, Bold Italic';font-variant-ligatures:normal;font-variant-caps:normal;font-variant-numeric:normal;font-feature-settings:normal;text-align:start;writing-mode:lr-tb;text-anchor:start;stroke-width:0.18143763"
             d="m 370.08627,67.154627 q 0.31208,0 0.53706,0.09435 0.22499,0.08709 0.37014,0.254015 0.14515,0.159666 0.21772,0.384651 0.0726,0.224985 0.0726,0.486258 0,0.304818 -0.0726,0.602378 l -0.49351,2.061152 h -1.08138 l 0.479,-2.017606 q 0.029,-0.123379 0.0508,-0.261273 0.029,-0.137894 0.029,-0.261272 0,-0.188697 -0.1016,-0.319334 -0.0943,-0.137894 -0.37014,-0.137894 -0.11612,0 -0.22498,0.01451 -0.10161,0.01452 -0.20322,0.03629 l -0.70398,2.946576 h -1.08138 l 1.30636,-5.457697 1.12493,-0.174181 -0.44271,1.821651 q 0.14515,-0.02903 0.2903,-0.0508 0.15241,-0.02177 0.29756,-0.02177 z"
             inkscape:connector-curvature="0" />
          <path
             id="path962"
             style="font-style:italic;font-variant:normal;font-weight:bold;font-stretch:normal;font-size:7.25757504px;font-family:Ubuntu;-inkscape-font-specification:'Ubuntu, Bold Italic';font-variant-ligatures:normal;font-variant-caps:normal;font-variant-numeric:normal;font-feature-settings:normal;text-align:start;writing-mode:lr-tb;text-anchor:start;stroke-width:0.18143763"
             d="m 371.82412,69.542369 q 0,-0.464484 0.15966,-0.899939 0.16693,-0.435454 0.46449,-0.769303 0.29756,-0.341106 0.7185,-0.544318 0.42819,-0.21047 0.94348,-0.21047 0.25402,0 0.47174,0.07258 0.21773,0.07258 0.3774,0.21047 0.16692,0.137894 0.25401,0.341106 0.0944,0.195954 0.0944,0.449969 0,0.406425 -0.18144,0.68947 -0.18144,0.283045 -0.50803,0.464485 -0.31933,0.174182 -0.76204,0.254015 -0.44272,0.07983 -0.96526,0.07983 0.0508,0.304818 0.21773,0.435455 0.17418,0.123379 0.54431,0.123379 0.23225,0 0.47175,-0.03629 0.2395,-0.04355 0.44997,-0.123379 l 0.0798,0.849136 q -0.20321,0.07983 -0.52255,0.145152 -0.31207,0.06532 -0.68221,0.06532 -0.44997,0 -0.76204,-0.123379 -0.30482,-0.130636 -0.50078,-0.348364 -0.18869,-0.217727 -0.27578,-0.50803 -0.0871,-0.290303 -0.0871,-0.616894 z m 2.11195,-1.567636 q -0.37014,0 -0.65318,0.26853 -0.27579,0.261273 -0.36288,0.696728 0.44997,-0.01452 0.72576,-0.07258 0.27578,-0.06532 0.42819,-0.152409 0.15241,-0.08709 0.20322,-0.188697 0.0508,-0.101606 0.0508,-0.203212 0,-0.348364 -0.39191,-0.348364 z"
             inkscape:connector-curvature="0" />
        </g>
      </g>
      <g
         inkscape:export-ydpi="95.999985"
         inkscape:export-xdpi="95.999985"
         inkscape:export-filename=".\g5798.png"
         transform="matrix(0.68907255,0,0,0.65505911,177.20817,1.5918663)"
         id="g5798">
        <path
           id="rect5750"
           d="M 82.693192,116.41289 H 212.53273 v 40.78533 H 82.693192 Z"
           style="fill:#000000;fill-opacity:1;stroke:#000000;stroke-width:0.079375;stroke-miterlimit:4;stroke-dasharray:none;stroke-opacity:1"
           inkscape:connector-curvature="0" />
        <g
           aria-label="y "
           transform="matrix(0.90265956,0,0,-1.1078374,-158.27701,-27.689123)"
           style="font-style:normal;font-variant:normal;font-weight:normal;font-stretch:normal;font-size:6.69081831px;line-height:1.25;font-family:Ubuntu;-inkscape-font-specification:'Ubuntu, Normal';font-variant-ligatures:normal;font-variant-caps:normal;font-variant-numeric:normal;font-feature-settings:normal;text-align:start;letter-spacing:0px;word-spacing:0px;writing-mode:lr-tb;text-anchor:start;fill:#008000;fill-opacity:1;stroke:none;stroke-width:0.16727045"
           id="text5754">
          <path
             d="m 271.65279,-141.25298 q 0.0736,0.0335 0.18734,0.0602 0.12044,0.0335 0.23418,0.0335 0.368,0 0.57541,-0.16727 0.20742,-0.16058 0.37469,-0.52858 -0.42152,-0.8029 -0.78952,-1.69946 -0.3613,-0.90327 -0.60217,-1.8266 h 0.66908 q 0.0736,0.30109 0.17396,0.64901 0.10705,0.34792 0.23418,0.71592 0.12713,0.36799 0.27432,0.73599 0.1472,0.36799 0.30778,0.70923 0.25425,-0.70254 0.4416,-1.39169 0.18734,-0.68916 0.35461,-1.41846 h 0.64232 q -0.24087,0.98355 -0.53527,1.8935 -0.29439,0.90326 -0.63563,1.69278 -0.13381,0.30109 -0.28101,0.51519 -0.14051,0.2208 -0.31447,0.36131 -0.17396,0.1405 -0.39476,0.20741 -0.2141,0.0669 -0.48843,0.0669 -0.0736,0 -0.15389,-0.0134 -0.0803,-0.007 -0.16058,-0.0268 -0.0736,-0.0134 -0.1405,-0.0335 -0.0602,-0.0201 -0.087,-0.0334 z"
             style="fill:#008000;stroke-width:0.16727045"
             id="path5774"
             inkscape:connector-curvature="0" />
        </g>
        <g
           id="g5787"
           transform="matrix(1.1601404,0,0,1.0986927,-34.399964,-12.121777)">
          <path
             id="path5756"
             d="m 193.88275,119.18834 a 4.7104316,3.5930719 0 0 1 -4.71043,3.59307 4.7104316,3.5930719 0 0 1 -4.71043,-3.59307 4.7104316,3.5930719 0 0 1 4.71043,-3.59307 4.7104316,3.5930719 0 0 1 4.71043,3.59307 z"
             style="fill:#008000;fill-opacity:1;stroke:#000000;stroke-width:0.06433697;stroke-miterlimit:4;stroke-dasharray:none;stroke-opacity:1"
             inkscape:connector-curvature="0" />
          <path
             id="ellipse5758"
             d="m 204.18683,118.8759 a 4.7104316,3.5930719 0 0 1 -4.71044,3.59307 4.7104316,3.5930719 0 0 1 -4.71043,-3.59307 4.7104316,3.5930719 0 0 1 4.71043,-3.59307 4.7104316,3.5930719 0 0 1 4.71044,3.59307 z"
             inkscape:transform-center-y="0.62487992"
             inkscape:transform-center-x="12.364894"
             style="fill:#ffff00;fill-opacity:1;stroke:#000000;stroke-width:0.06433697;stroke-miterlimit:4;stroke-dasharray:none;stroke-opacity:1"
             inkscape:connector-curvature="0" />
          <path
             id="ellipse5760"
             d="m 214.78531,119.18834 a 4.7104316,3.5930719 0 0 1 -4.71044,3.59307 4.7104316,3.5930719 0 0 1 -4.71043,-3.59307 4.7104316,3.5930719 0 0 1 4.71043,-3.59307 4.7104316,3.5930719 0 0 1 4.71044,3.59307 z"
             inkscape:transform-center-y="0.62487896"
             inkscape:transform-center-x="12.364872"
             style="fill:#ff0000;fill-opacity:1;stroke:#000000;stroke-width:0.06433697;stroke-miterlimit:4;stroke-dasharray:none;stroke-opacity:1"
             inkscape:connector-curvature="0" />
        </g>
        <g
           aria-label="$"
           style="font-style:normal;font-variant:normal;font-weight:normal;font-stretch:normal;font-size:10.58333302px;line-height:1.25;font-family:Ubuntu;-inkscape-font-specification:'Ubuntu, Normal';font-variant-ligatures:normal;font-variant-caps:normal;font-variant-numeric:normal;font-feature-settings:normal;text-align:start;letter-spacing:0px;word-spacing:0px;writing-mode:lr-tb;text-anchor:start;fill:#ffffff;fill-opacity:1;stroke:none;stroke-width:0.26458332"
           id="text5769"
           transform="translate(-158.27701,-27.689123)">
          <path
             d="m 254.59417,159.56039 q 0.81491,0 1.143,-0.254 0.32808,-0.26458 0.32808,-0.66675 0,-0.29633 -0.14817,-0.508 -0.13758,-0.21166 -0.381,-0.37041 -0.23283,-0.15875 -0.55033,-0.28575 -0.30692,-0.127 -0.635,-0.24342 -0.3175,-0.11642 -0.635,-0.254 -0.30692,-0.14817 -0.55033,-0.34925 -0.24342,-0.21167 -0.40217,-0.49742 -0.14817,-0.29633 -0.14817,-0.71966 0,-0.75142 0.4445,-1.22767 0.45509,-0.48683 1.31234,-0.61383 v -1.21709 h 0.87841 v 1.18534 q 0.46567,0.0212 0.86784,0.11641 0.40216,0.0952 0.635,0.17992 l -0.20109,0.8255 q -0.254,-0.0953 -0.635,-0.1905 -0.381,-0.10583 -0.9525,-0.10583 -0.635,0 -0.98425,0.24341 -0.33866,0.24342 -0.33866,0.68792 0,0.24342 0.0952,0.41275 0.10583,0.16933 0.29633,0.30692 0.1905,0.127 0.4445,0.23283 0.26458,0.10583 0.58208,0.22225 0.41275,0.15875 0.78317,0.32808 0.37042,0.16934 0.64558,0.41275 0.28575,0.23284 0.45509,0.56092 0.16933,0.32808 0.16933,0.79375 0,0.75142 -0.45508,1.21708 -0.45509,0.45509 -1.40759,0.5715 v 1.36525 h -0.87841 v -1.3335 q -0.74084,-0.0212 -1.2065,-0.15875 -0.46567,-0.14816 -0.6985,-0.27516 l 0.26458,-0.79375 q 0.3175,0.14816 0.762,0.27516 0.4445,0.127 1.10067,0.127 z"
             style="fill:#ffffff;stroke-width:0.26458332"
             id="path5771"
             inkscape:connector-curvature="0" />
        </g>
      </g>
    </g>
  </g>
</svg>
